<svg xmlns="http://www.w3.org/2000/svg" id="SvgjsSvg42277" width="2420.0786568525964" height="4096" version="1.1" xmlns:xlink="http://www.w3.org/1999/xlink" xmlns:svgjs="http://svgjs.com/svgjs"><defs id="SvgjsDefs42278"></defs><g id="SvgjsG42279" transform="translate(328, 327.9999999999998) scale(34.4)" opacity="1"><defs id="SvgjsDefs12113"></defs><g id="SvgjsG12114" transform="scale(0.351000351000351)" opacity="1"><g id="SvgjsG12115" class="HFmFVsttA" transform="translate(-47.744700896917465, -10.888245094102059) scale(2.4196100209115685)" stroke="#d4af37" stroke-width="1.5237433962264142px" light-content="false" non-strokable="false" fill="#d4af37"><path d="M49.557 4.757l.877.48-24.657 45.006-.877-.48z"></path><path d="M50 95.5h-.296L24.763 50l20.944-38.209C49.704 4.5 49.704 4.5 50 4.5h.296L75.237 50 54.293 88.209C50.296 95.5 50.296 95.5 50 95.5zM25.904 50L50 93.96 74.097 50 50 6.04 25.904 50z"></path></g><g id="SvgjsG12116" class="text" transform="translate(64.39819196519291, 149.01745702360475) scale(1)" light-content="false" fill="#000000"><path d="M9.58 -76.51L8.96 -77.01C8.13 -77.01 7.09 -76.78 5.85 -76.32C4.6 -75.87 3.86 -75.31 3.61 -74.64L-21.27 -30.23C-26.91 -28.41 -32.18 -27.37 -37.07 -27.12C-37.98 -27.04 -38.44 -26.48 -38.44 -25.44C-38.44 -24.4 -38.19 -23.89 -37.69 -23.89C-33.22 -24.38 -28.36 -25.42 -23.14 -27L-39.68 2.61C-39.68 3.03 -39.33 3.23 -38.63 3.23C-37.92 3.23 -36.91 2.94 -35.58 2.36C-34.25 1.78 -33.34 0.95 -32.84 -0.12C-30.11 -4.77 -24.59 -14.51 -16.3 -29.36C-1.78 -34.92 11.05 -42.8 22.21 -53C33.36 -63.2 38.94 -72.07 38.94 -79.62C38.94 -88.33 31.06 -92.68 15.3 -92.68C5.85 -92.68 -5.14 -90.21 -17.67 -85.28C-30.19 -80.34 -40.95 -74.31 -49.95 -67.18C-58.95 -60.05 -63.45 -53.62 -63.45 -47.9C-63.45 -41.34 -60.25 -38.07 -53.87 -38.07C-49.22 -38.07 -43.46 -39.71 -36.57 -42.98C-29.69 -46.26 -23.8 -49.87 -18.91 -53.8C-14.02 -57.74 -11.57 -60.67 -11.57 -62.58C-11.57 -63.16 -11.84 -63.45 -12.38 -63.45C-12.92 -63.45 -13.52 -62.91 -14.18 -61.83C-19.49 -56.11 -25.48 -51.52 -32.16 -48.08C-38.83 -44.64 -44.62 -42.92 -49.51 -42.92C-55.32 -42.92 -58.22 -45.24 -58.22 -49.89C-58.22 -55.36 -54.32 -61.17 -46.53 -67.3C-38.73 -73.44 -29.4 -78.5 -18.54 -82.48C-7.67 -86.46 2.07 -88.45 10.7 -88.45C25.46 -88.45 32.84 -84.51 32.84 -76.63C32.84 -70.08 28.03 -62.39 18.41 -53.56C8.79 -44.72 -2.16 -37.78 -14.43 -32.72C0.41 -59.17 8.13 -73.05 8.71 -74.33C9.29 -75.62 9.58 -76.34 9.58 -76.51Z M46.03 -58.47C50.51 -58.47 55.19 -60.75 60.09 -65.31C64.98 -69.87 67.51 -75.51 67.68 -82.23C71.33 -83.14 75.02 -83.68 78.75 -83.85C79.49 -84.1 79.87 -84.64 79.87 -85.47C79.87 -86.3 79.81 -86.77 79.68 -86.9C79.56 -87.02 78.66 -87.08 77.01 -87.08C75.35 -87.08 72.2 -86.34 67.55 -84.84C66.72 -91.89 62.12 -95.42 53.74 -95.42C48.43 -95.42 42.82 -93.97 36.89 -91.06C30.96 -88.16 25.83 -83.99 21.52 -78.56C17.21 -73.13 15.05 -67.68 15.05 -62.2C15.05 -56.73 16.36 -50.2 18.97 -42.61C21.58 -35.02 22.89 -29.44 22.89 -25.88C22.89 -24.47 22.72 -22.6 22.39 -20.28C14.68 -18.95 6.82 -16.69 -1.18 -13.5C-9.19 -10.3 -16.09 -6.34 -21.9 -1.62C-27.7 3.11 -30.6 7.8 -30.6 12.44C-30.6 15.76 -27.78 17.42 -22.14 17.42C-18.49 17.42 -14.29 16.63 -9.52 15.05C-4.75 13.48 0 11.26 4.73 8.4C9.45 5.54 13.75 1.8 17.6 -2.8C21.46 -7.4 24.09 -12.36 25.5 -17.67C27.74 -18 30.06 -18.16 32.47 -18.16C39.02 -18.16 42.3 -16.75 42.3 -13.93C42.3 -12.52 41.05 -11.11 38.57 -9.7C38.23 -9.45 38.07 -9.16 38.07 -8.83C38.07 -8.5 38.4 -8.13 39.06 -7.71C41.22 -9.04 42.75 -10.2 43.67 -11.2C44.58 -12.19 45.03 -13.44 45.03 -14.93C45.03 -19.16 41.01 -21.27 32.97 -21.27C31.56 -21.27 29.28 -21.11 26.12 -20.78C26.46 -23.26 26.62 -25.17 26.62 -26.5C26.62 -31.81 25.38 -38.48 22.89 -46.53C20.4 -54.57 19.16 -59.42 19.16 -61.08C19.16 -65.89 20.22 -70.31 22.33 -74.33C24.45 -78.35 27.18 -81.59 30.54 -84.04C33.9 -86.48 37.47 -88.37 41.24 -89.7C45.01 -91.02 48.66 -91.69 52.19 -91.69C55.71 -91.69 58.68 -91.04 61.08 -89.76C63.49 -88.47 64.98 -86.63 65.56 -84.22C58.93 -81.82 53.2 -78.71 48.39 -74.89C43.58 -71.08 41.18 -67.01 41.18 -62.7C41.18 -59.88 42.8 -58.47 46.03 -58.47ZM-25.75 9.33C-25.75 5.52 -23.14 1.72 -17.91 -2.05C-12.69 -5.83 -6.53 -9 0.56 -11.57C7.65 -14.14 14.72 -16.01 21.77 -17.17C20.53 -12.27 18.27 -7.82 14.99 -3.79C11.71 0.23 8.04 3.4 3.98 5.72C-4.31 10.53 -11.82 12.94 -18.54 12.94C-23.35 12.94 -25.75 11.74 -25.75 9.33ZM45.16 -63.45C45.16 -67.26 47.15 -70.79 51.13 -74.02C55.11 -77.25 60 -79.78 65.81 -81.61C65.73 -76.47 63.47 -71.76 59.03 -67.49C54.59 -63.22 50.8 -61.08 47.65 -61.08C45.99 -61.08 45.16 -61.87 45.16 -63.45Z"></path></g><g id="SvgjsG12117" class="text" transform="translate(72.60101241870746, 276.21058020850245) scale(1)" light-content="false" fill="#000000"><path d="M-46.27 -18.99L-47.03 -18.9C-47.36 -18.98 -47.93 -19.14 -48.76 -19.37C-49.59 -19.61 -50.35 -19.73 -51.04 -19.73C-52.37 -19.73 -53.55 -19.31 -54.58 -18.49C-55.6 -17.67 -56.12 -16.61 -56.12 -15.32C-56.12 -14.03 -55.65 -12.86 -54.72 -11.81C-54.12 -11.13 -53.32 -10.45 -52.31 -9.77C-51.31 -9.09 -50.54 -8.56 -50 -8.18C-48.12 -6.82 -47.18 -5.35 -47.18 -3.78C-47.18 -2.79 -47.54 -1.99 -48.26 -1.37C-48.98 -0.76 -49.85 -0.45 -50.86 -0.45C-53.07 -0.45 -54.65 -1.47 -55.6 -3.5C-55.81 -4.23 -56.04 -4.59 -56.29 -4.59C-56.39 -4.59 -56.46 -4.57 -56.48 -4.52C-56.5 -4.47 -56.51 -4.37 -56.51 -4.23C-56.51 -4.09 -56.38 -2.9 -56.12 -0.65C-56.09 -0.46 -56.02 -0.37 -55.9 -0.37L-55.23 -0.5C-55.21 -0.51 -55.14 -0.52 -55.04 -0.52C-54.93 -0.52 -54.77 -0.47 -54.54 -0.38C-54.32 -0.29 -53.91 -0.14 -53.31 0.06C-52.72 0.26 -51.92 0.37 -50.91 0.37C-49.35 0.37 -47.97 -0.09 -46.79 -1.01C-45.61 -1.93 -45.02 -3.16 -45.02 -4.7C-45.1 -6.08 -45.62 -7.32 -46.57 -8.42C-47.17 -9.14 -48.2 -10 -49.64 -11C-50.18 -11.39 -50.72 -11.78 -51.24 -12.16C-51.77 -12.54 -52.23 -12.94 -52.64 -13.35C-53.05 -13.77 -53.38 -14.22 -53.62 -14.71C-53.87 -15.2 -54 -15.78 -54 -16.44C-54 -17.11 -53.66 -17.69 -52.99 -18.18C-52.32 -18.67 -51.61 -18.91 -50.86 -18.91C-49.61 -18.91 -48.49 -18.43 -47.49 -17.47C-47.08 -17.06 -46.78 -16.65 -46.59 -16.23C-46.54 -16.13 -46.49 -16.02 -46.44 -15.91C-46.39 -15.8 -46.35 -15.7 -46.31 -15.62C-46.27 -15.53 -46.24 -15.47 -46.2 -15.43C-46.16 -15.4 -46.08 -15.38 -45.94 -15.38C-45.8 -15.38 -45.73 -15.4 -45.73 -15.45C-45.73 -15.5 -45.74 -15.62 -45.78 -15.8L-46.13 -18.69C-46.13 -18.89 -46.18 -18.99 -46.27 -18.99Z M-37.88 -7.16L-30 -7.16C-29.81 -7.16 -29.71 -7.35 -29.71 -7.74C-29.71 -8.63 -30.13 -9.66 -30.96 -10.83C-31.79 -12.01 -32.87 -12.59 -34.18 -12.59C-36.01 -12.59 -37.45 -11.89 -38.49 -10.47C-39.54 -9.06 -40.06 -7.5 -40.06 -5.78C-40.06 -4.06 -39.58 -2.63 -38.62 -1.48C-38.17 -0.93 -37.63 -0.48 -36.99 -0.14C-36.36 0.2 -35.73 0.37 -35.12 0.37C-34.5 0.37 -33.95 0.28 -33.46 0.11C-32.04 -0.38 -30.8 -1.26 -29.75 -2.54C-29.8 -2.57 -29.84 -2.62 -29.89 -2.71C-29.94 -2.8 -30 -2.84 -30.05 -2.84L-30.12 -2.84C-30.15 -2.84 -30.17 -2.83 -30.19 -2.81C-31.33 -1.74 -32.52 -1.21 -33.75 -1.21C-34.99 -1.21 -36.02 -1.68 -36.86 -2.64C-37.69 -3.59 -38.11 -4.76 -38.11 -6.17C-38.11 -6.83 -38.03 -7.16 -37.88 -7.16ZM-37.73 -8.46L-37.73 -8.63C-37.57 -9.41 -37.22 -10.12 -36.66 -10.73C-36.1 -11.35 -35.48 -11.66 -34.81 -11.66C-34.11 -11.66 -33.47 -11.31 -32.88 -10.63C-32.3 -9.95 -32.01 -9.28 -32.01 -8.63C-32.01 -8.35 -32.12 -8.21 -32.36 -8.21L-37.48 -8.21C-37.64 -8.21 -37.73 -8.29 -37.73 -8.46Z M-13.98 -10.96C-13.98 -11.04 -14 -11.13 -14.05 -11.22C-14.22 -11.62 -14.52 -11.95 -14.95 -12.21C-15.37 -12.48 -16.24 -12.61 -17.54 -12.61C-19.65 -12.61 -21.28 -12.09 -22.42 -11.04C-23.71 -9.86 -24.37 -7.92 -24.37 -5.22C-24.37 -3.76 -23.89 -2.46 -22.91 -1.33C-21.94 -0.2 -20.69 0.37 -19.17 0.37C-17.07 0.37 -15.33 -0.6 -13.94 -2.53C-13.89 -2.58 -13.86 -2.66 -13.86 -2.76C-13.86 -2.87 -13.89 -2.95 -13.95 -3C-14.02 -3.06 -14.08 -3.08 -14.13 -3.08C-14.19 -3.08 -14.35 -2.93 -14.62 -2.64C-15.51 -1.64 -16.51 -1.14 -17.62 -1.14C-19.12 -1.14 -20.23 -1.65 -20.95 -2.66C-21.68 -3.67 -22.04 -4.97 -22.04 -6.56C-22.04 -7.3 -21.9 -8.05 -21.62 -8.8C-21.11 -10.16 -20.39 -11.05 -19.45 -11.47C-18.51 -11.88 -17.72 -11.82 -17.07 -11.29C-16.91 -11.16 -16.76 -11.02 -16.62 -10.87C-16.48 -10.73 -16.28 -10.54 -16.03 -10.33C-15.77 -10.12 -15.45 -10.01 -15.08 -10.01C-14.35 -10.01 -13.98 -10.33 -13.98 -10.96Z M0.12 -1.2L0.12 0.03C0.12 0.25 0.16 0.37 0.23 0.37C0.31 0.37 0.4 0.34 0.51 0.29L4.12 -1.21C4.26 -1.27 4.33 -1.36 4.33 -1.46C4.33 -1.56 4.3 -1.62 4.25 -1.62L3.46 -1.56C3.05 -1.56 2.76 -1.65 2.58 -1.82C2.39 -1.99 2.28 -2.28 2.24 -2.68L2.24 -12.32C2.24 -12.5 2.18 -12.59 2.08 -12.59C1.98 -12.59 1.87 -12.58 1.76 -12.54L-1.35 -11.64C-1.5 -11.61 -1.57 -11.5 -1.57 -11.34C-1.57 -11.17 -1.42 -11.08 -1.11 -11.06C-0.81 -11.04 -0.52 -10.91 -0.24 -10.68C-0.03 -10.49 0.09 -10.26 0.12 -10L0.12 -2.64C-0.03 -2.43 -0.21 -2.24 -0.43 -2.06C-1.12 -1.53 -1.91 -1.26 -2.78 -1.26C-3.66 -1.26 -4.38 -1.44 -4.94 -1.78C-5.5 -2.12 -5.78 -2.61 -5.78 -3.25L-5.78 -12.36C-5.78 -12.52 -5.83 -12.59 -5.94 -12.59C-6.04 -12.59 -6.15 -12.58 -6.25 -12.54L-9.37 -11.64C-9.51 -11.61 -9.58 -11.5 -9.58 -11.34C-9.58 -11.17 -9.43 -11.08 -9.13 -11.06C-8.82 -11.04 -8.53 -10.91 -8.25 -10.68C-8.04 -10.49 -7.93 -10.26 -7.9 -10L-7.9 -1.71C-7.9 -1.31 -7.81 -0.98 -7.63 -0.71C-7.13 0.02 -6.31 0.38 -5.18 0.38C-4.05 0.38 -2.64 -0.04 -0.94 -0.88C-0.43 -1.15 -0.13 -1.3 -0.06 -1.35C0.01 -1.4 0.07 -1.35 0.12 -1.2Z M17.14 -9.74C17.34 -9.74 17.55 -9.95 17.76 -10.38C17.97 -10.8 18.07 -11.12 18.07 -11.33C18.07 -11.5 17.75 -11.71 17.09 -11.97C16.43 -12.22 15.95 -12.35 15.63 -12.35C15.07 -12.35 14.36 -11.75 13.5 -10.54C13.2 -10.12 13.01 -9.9 12.94 -9.9C12.88 -9.9 12.86 -9.96 12.86 -10.07L12.86 -12.27C12.86 -12.48 12.78 -12.59 12.63 -12.59C12.6 -12.59 12.53 -12.57 12.42 -12.51L8.96 -10.88C8.82 -10.81 8.75 -10.72 8.75 -10.62C8.75 -10.51 8.77 -10.44 8.8 -10.41C8.83 -10.38 8.91 -10.35 9.03 -10.31C9.16 -10.27 9.32 -10.24 9.53 -10.2C9.74 -10.15 9.93 -10.1 10.11 -10.04C10.53 -9.89 10.74 -9.63 10.74 -9.25L10.74 -2.06C10.74 -1.18 10.25 -0.66 9.27 -0.52C8.84 -0.46 8.63 -0.35 8.63 -0.19C8.63 -0.08 8.68 -0.02 8.77 0L15.57 0C15.66 -0.02 15.71 -0.08 15.71 -0.18C15.71 -0.29 15.67 -0.36 15.58 -0.39C15.49 -0.43 15.3 -0.47 15 -0.51C14.7 -0.55 14.38 -0.62 14.04 -0.71C13.25 -0.93 12.86 -1.39 12.86 -2.06L12.86 -8.21C12.86 -8.63 13.09 -9.11 13.56 -9.64C14.02 -10.17 14.47 -10.43 14.89 -10.43C15.32 -10.43 15.91 -10.26 16.66 -9.92C16.87 -9.82 17.03 -9.76 17.14 -9.74Z M21.81 0L27.87 0C27.96 -0.02 28 -0.1 28 -0.23C28 -0.37 27.79 -0.46 27.36 -0.52C26.39 -0.66 25.9 -1.18 25.9 -2.06L25.9 -12.27C25.9 -12.48 25.82 -12.59 25.67 -12.59C25.64 -12.59 25.57 -12.57 25.46 -12.51L22 -10.88C21.86 -10.81 21.79 -10.72 21.79 -10.62C21.79 -10.51 21.81 -10.44 21.84 -10.41C21.87 -10.38 21.95 -10.35 22.07 -10.31C22.19 -10.27 22.36 -10.24 22.57 -10.2C22.78 -10.15 22.97 -10.1 23.15 -10.04C23.57 -9.89 23.78 -9.63 23.78 -9.25L23.78 -2.06C23.78 -1.18 23.29 -0.66 22.31 -0.52C21.88 -0.46 21.67 -0.35 21.67 -0.19C21.67 -0.08 21.72 -0.02 21.81 0ZM23.65 -16.76C23.93 -16.53 24.26 -16.41 24.64 -16.41C25.02 -16.41 25.33 -16.55 25.57 -16.83C25.81 -17.1 25.94 -17.41 25.94 -17.74C25.94 -18.08 25.81 -18.39 25.55 -18.68C25.29 -18.97 24.97 -19.11 24.6 -19.11C24.22 -19.11 23.9 -18.99 23.63 -18.75C23.36 -18.5 23.22 -18.17 23.22 -17.75C23.22 -17.33 23.36 -17 23.65 -16.76Z M35.72 -10.45L39.8 -10.45C39.88 -10.45 39.91 -10.47 39.91 -10.53C39.91 -11.65 39.71 -12.21 39.32 -12.21L35.85 -12.21C35.71 -12.22 35.63 -12.31 35.63 -12.47C35.94 -13.64 36.1 -14.23 36.1 -14.25C36.1 -14.38 36.02 -14.44 35.86 -14.44C35.71 -14.44 35.49 -14.27 35.19 -13.92C34.9 -13.58 34.67 -13.31 34.52 -13.11C34.37 -12.91 34.24 -12.76 34.15 -12.66C33.31 -11.86 32.65 -11.31 32.17 -11C32.11 -10.96 32.08 -10.85 32.1 -10.69C32.11 -10.53 32.24 -10.45 32.5 -10.45L33.51 -10.45L33.51 -2.88C33.51 -1.99 33.77 -1.23 34.28 -0.59C34.79 0.05 35.55 0.37 36.56 0.37C37.57 0.37 38.62 -0.34 39.71 -1.74C39.75 -1.8 39.78 -1.94 39.78 -2.16C39.78 -2.22 39.71 -2.26 39.59 -2.26C39.46 -2.26 39.32 -2.19 39.15 -2.07C38.99 -1.95 38.81 -1.82 38.6 -1.67C38.4 -1.53 38.16 -1.39 37.88 -1.27C37.61 -1.15 37.28 -1.09 36.91 -1.09C36.54 -1.09 36.23 -1.24 35.99 -1.55C35.75 -1.86 35.63 -2.28 35.63 -2.83L35.63 -10.32C35.63 -10.41 35.66 -10.45 35.72 -10.45Z M57.25 -12.23L52.1 -12.23C51.9 -12.23 51.8 -12.15 51.8 -12C51.8 -11.73 52.02 -11.6 52.47 -11.6C52.92 -11.6 53.27 -11.47 53.53 -11.19C53.79 -10.92 53.92 -10.66 53.92 -10.42C53.92 -10.18 53.84 -9.81 53.69 -9.32C53.54 -8.83 52.85 -7.02 51.62 -3.9C51.41 -3.36 51.3 -3.06 51.28 -3.02C51.1 -2.53 50.92 -2.51 50.74 -2.98L47.22 -10.51L47.1 -10.84C47.1 -11.38 47.45 -11.66 48.14 -11.66C48.58 -11.66 48.86 -11.68 48.99 -11.73C49.11 -11.78 49.18 -11.88 49.18 -12.02C49.18 -12.16 49.14 -12.23 49.07 -12.23L43.02 -12.23C42.8 -12.23 42.7 -12.13 42.7 -11.94C42.7 -11.75 42.89 -11.64 43.27 -11.6C43.36 -11.59 43.43 -11.58 43.5 -11.56C44.31 -11.3 44.89 -10.71 45.22 -9.79L49.71 -0.43C49.89 -0.21 49.98 -0.02 49.98 0.14C49.98 0.29 49.22 2.07 47.7 5.47C47.65 5.59 47.5 5.77 47.25 6.01C46.99 6.25 46.76 6.41 46.56 6.47C46.36 6.54 46.16 6.62 45.97 6.7C45.78 6.78 45.61 6.89 45.47 7.02C45.33 7.15 45.26 7.36 45.26 7.64C45.26 7.93 45.36 8.17 45.55 8.38C45.74 8.59 45.99 8.69 46.31 8.69C47.03 8.69 47.51 8.45 47.74 7.97L48.62 6.1L55 -9.73C55.24 -10.29 55.46 -10.73 55.67 -11.04C55.88 -11.36 56.11 -11.55 56.38 -11.59C56.64 -11.64 56.83 -11.68 56.95 -11.7C57.08 -11.71 57.17 -11.74 57.24 -11.76C57.31 -11.78 57.35 -11.81 57.37 -11.84C57.39 -11.87 57.39 -11.94 57.39 -12.04C57.39 -12.14 57.35 -12.2 57.25 -12.23Z"></path></g><g id="SvgjsG12118" class="text" transform="translate(72.91, 249.55916847216722) scale(1)" light-content="false" fill="#d4af37"><path d="M-72.1 0L-63.97 0C-63.9 0 -63.87 -0.04 -63.87 -0.11L-63.87 -0.43C-63.87 -0.51 -63.91 -0.54 -64 -0.54C-64.09 -0.54 -64.27 -0.56 -64.53 -0.6C-64.79 -0.65 -64.98 -0.67 -65.1 -0.69C-65.98 -0.83 -66.56 -1.01 -66.83 -1.25C-67.1 -1.49 -67.23 -1.85 -67.23 -2.35L-67.23 -7.93C-67.23 -8.06 -67.17 -8.12 -67.03 -8.12L-66.92 -8.12L-62.85 -7.96C-62.29 -7.97 -61.71 -8.14 -61.13 -8.47C-60.56 -8.8 -60.03 -9.23 -59.57 -9.77C-58.51 -10.97 -57.98 -12.32 -57.98 -13.8C-57.98 -15.28 -58.52 -16.55 -59.6 -17.61C-60.68 -18.67 -62.03 -19.25 -63.65 -19.36L-65.02 -19.36L-72.64 -19.16L-72.74 -19.16C-72.85 -19.13 -72.91 -19.05 -72.91 -18.92C-72.91 -18.71 -72.82 -18.6 -72.63 -18.6L-72.02 -18.6C-71.21 -18.6 -70.65 -18.48 -70.35 -18.25C-70.04 -18.02 -69.88 -17.49 -69.88 -16.66L-69.88 -2.31C-69.88 -1.47 -70.35 -0.94 -71.27 -0.73C-71.36 -0.72 -71.49 -0.68 -71.67 -0.62C-71.85 -0.57 -71.98 -0.54 -72.07 -0.54C-72.16 -0.54 -72.21 -0.51 -72.21 -0.43L-72.21 -0.27C-72.21 -0.09 -72.17 0 -72.1 0ZM-66.48 -18.66C-66.36 -18.66 -66.24 -18.67 -66.13 -18.67L-65.81 -18.69C-65.7 -18.69 -65.58 -18.69 -65.45 -18.69C-64.01 -18.69 -62.86 -18.29 -62 -17.47C-61.13 -16.66 -60.7 -15.51 -60.7 -14.03C-60.7 -12.55 -61.15 -11.32 -62.04 -10.34C-62.93 -9.36 -64.11 -8.87 -65.56 -8.87L-66.95 -8.95C-67.09 -8.96 -67.18 -9.06 -67.21 -9.25L-67.23 -9.66L-67.23 -18.42C-67.23 -18.57 -67.14 -18.64 -66.95 -18.65C-66.76 -18.65 -66.6 -18.65 -66.48 -18.66Z M-45.01 -9.74C-44.8 -9.74 -44.6 -9.95 -44.39 -10.38C-44.18 -10.8 -44.07 -11.12 -44.07 -11.33C-44.07 -11.5 -44.4 -11.71 -45.06 -11.97C-45.72 -12.22 -46.2 -12.35 -46.52 -12.35C-47.08 -12.35 -47.79 -11.75 -48.65 -10.54C-48.95 -10.12 -49.14 -9.9 -49.21 -9.9C-49.26 -9.9 -49.29 -9.96 -49.29 -10.07L-49.29 -12.27C-49.29 -12.48 -49.37 -12.59 -49.52 -12.59C-49.55 -12.59 -49.62 -12.57 -49.73 -12.51L-53.19 -10.88C-53.33 -10.81 -53.39 -10.72 -53.39 -10.62C-53.39 -10.51 -53.38 -10.44 -53.35 -10.41C-53.31 -10.38 -53.24 -10.35 -53.12 -10.31C-52.99 -10.27 -52.83 -10.24 -52.62 -10.2C-52.41 -10.15 -52.22 -10.1 -52.04 -10.04C-51.62 -9.89 -51.41 -9.63 -51.41 -9.25L-51.41 -2.06C-51.41 -1.18 -51.9 -0.66 -52.88 -0.52C-53.3 -0.46 -53.52 -0.35 -53.52 -0.19C-53.52 -0.08 -53.47 -0.02 -53.38 0L-46.57 0C-46.48 -0.02 -46.44 -0.08 -46.44 -0.18C-46.44 -0.29 -46.48 -0.36 -46.57 -0.39C-46.65 -0.43 -46.85 -0.47 -47.14 -0.51C-47.44 -0.55 -47.77 -0.62 -48.11 -0.71C-48.9 -0.93 -49.29 -1.39 -49.29 -2.06L-49.29 -8.21C-49.29 -8.63 -49.06 -9.11 -48.59 -9.64C-48.13 -10.17 -47.68 -10.43 -47.25 -10.43C-46.83 -10.43 -46.24 -10.26 -45.49 -9.92C-45.28 -9.82 -45.12 -9.76 -45.01 -9.74Z M-31.61 -1.68C-31.83 -1.82 -31.95 -2.01 -31.95 -2.24L-31.95 -9.4C-31.95 -10.27 -32.3 -11.02 -33.02 -11.65C-33.73 -12.28 -34.66 -12.59 -35.8 -12.59C-36.95 -12.59 -37.96 -12.18 -38.85 -11.36C-39.23 -11 -39.52 -10.61 -39.73 -10.19C-39.94 -9.76 -40.04 -9.38 -40.04 -9.03C-40.04 -8.68 -39.97 -8.5 -39.83 -8.5C-39.73 -8.52 -39.39 -8.66 -38.79 -8.91C-38.19 -9.17 -37.87 -9.35 -37.81 -9.46L-37.88 -9.99C-37.88 -10.52 -37.69 -10.93 -37.32 -11.22C-36.94 -11.51 -36.57 -11.66 -36.2 -11.66C-35.84 -11.66 -35.52 -11.59 -35.26 -11.45C-34.46 -11.04 -34.06 -10.32 -34.06 -9.29L-34.06 -6.68C-34.06 -6.63 -34.08 -6.57 -34.1 -6.51C-34.12 -6.44 -34.35 -6.3 -34.77 -6.07C-35.2 -5.85 -35.68 -5.66 -36.23 -5.52C-37.83 -5.1 -38.91 -4.66 -39.49 -4.21C-40.06 -3.76 -40.34 -3.15 -40.34 -2.38C-40.34 -1.99 -40.26 -1.62 -40.1 -1.28C-39.76 -0.61 -39.22 -0.13 -38.47 0.16C-37.73 0.45 -36.98 0.38 -36.24 -0.04C-35.95 -0.21 -35.24 -0.72 -34.12 -1.56C-34.1 -1.57 -34.08 -1.53 -34.05 -1.44C-33.69 -0.24 -33.22 0.37 -32.64 0.37C-32.16 0.37 -31.24 -0.13 -29.88 -1.13C-29.7 -1.26 -29.61 -1.43 -29.61 -1.62C-29.61 -1.82 -29.65 -1.92 -29.72 -1.92C-29.79 -1.92 -29.92 -1.84 -30.12 -1.69C-30.31 -1.54 -30.56 -1.47 -30.85 -1.47C-31.14 -1.47 -31.39 -1.54 -31.61 -1.68ZM-37.71 -1.5C-38.04 -1.82 -38.21 -2.2 -38.21 -2.64C-38.21 -3.07 -38.15 -3.37 -38.04 -3.53C-37.93 -3.7 -37.71 -3.89 -37.38 -4.13L-34.23 -5.6C-34.21 -5.61 -34.18 -5.61 -34.13 -5.61C-34.09 -5.61 -34.06 -5.56 -34.06 -5.46L-34.06 -2.7C-34.06 -2.31 -34.37 -1.94 -34.99 -1.57C-35.6 -1.2 -36.13 -1.02 -36.56 -1.02C-36.99 -1.02 -37.37 -1.18 -37.71 -1.5Z M-23.35 -7.16L-15.47 -7.16C-15.28 -7.16 -15.18 -7.35 -15.18 -7.74C-15.18 -8.63 -15.6 -9.66 -16.43 -10.83C-17.27 -12.01 -18.34 -12.59 -19.65 -12.59C-21.48 -12.59 -22.92 -11.89 -23.97 -10.47C-25.01 -9.06 -25.54 -7.5 -25.54 -5.78C-25.54 -4.06 -25.06 -2.63 -24.1 -1.48C-23.64 -0.93 -23.1 -0.48 -22.47 -0.14C-21.83 0.2 -21.21 0.37 -20.59 0.37C-19.98 0.37 -19.42 0.28 -18.93 0.11C-17.51 -0.38 -16.28 -1.26 -15.22 -2.54C-15.27 -2.57 -15.32 -2.62 -15.37 -2.71C-15.42 -2.8 -15.47 -2.84 -15.52 -2.84L-15.59 -2.84C-15.62 -2.84 -15.64 -2.83 -15.66 -2.81C-16.8 -1.74 -17.99 -1.21 -19.23 -1.21C-20.46 -1.21 -21.5 -1.68 -22.33 -2.64C-23.16 -3.59 -23.58 -4.76 -23.58 -6.17C-23.58 -6.83 -23.5 -7.16 -23.35 -7.16ZM-23.2 -8.46L-23.2 -8.63C-23.05 -9.41 -22.69 -10.12 -22.13 -10.73C-21.58 -11.35 -20.96 -11.66 -20.28 -11.66C-19.58 -11.66 -18.94 -11.31 -18.36 -10.63C-17.77 -9.95 -17.48 -9.28 -17.48 -8.63C-17.48 -8.35 -17.6 -8.21 -17.83 -8.21L-22.95 -8.21C-23.12 -8.21 -23.2 -8.29 -23.2 -8.46Z M-3.53 -9.29L-3.53 -10.54C-3.53 -11.27 -3.57 -11.69 -3.64 -11.83C-3.71 -11.96 -3.96 -12.12 -4.38 -12.31C-4.8 -12.5 -5.45 -12.59 -6.33 -12.59C-7.21 -12.59 -8.06 -12.24 -8.9 -11.54C-9.73 -10.84 -10.15 -10 -10.15 -9.03C-10.15 -7.74 -9.23 -6.56 -7.4 -5.49C-6.93 -5.22 -6.49 -4.94 -6.09 -4.65C-5.69 -4.36 -5.35 -4.03 -5.08 -3.68C-4.81 -3.33 -4.67 -2.89 -4.67 -2.38C-4.67 -1.86 -4.84 -1.39 -5.19 -0.97C-5.53 -0.55 -5.99 -0.34 -6.56 -0.34C-7.85 -0.34 -8.8 -1 -9.41 -2.31C-9.5 -2.51 -9.56 -2.64 -9.58 -2.72C-9.61 -2.79 -9.64 -2.86 -9.67 -2.93C-9.71 -3 -9.75 -3.05 -9.8 -3.1C-9.85 -3.14 -9.91 -3.17 -9.98 -3.17C-10.06 -3.17 -10.11 -3.16 -10.14 -3.14C-10.17 -3.12 -10.19 -3.02 -10.19 -2.84C-10.19 -2.66 -10.15 -2.08 -10.07 -1.1C-9.98 -0.12 -9.92 0.37 -9.86 0.37L-9.63 0.37C-9.54 0.37 -9.42 0.29 -9.27 0.14C-9.12 -0.01 -9.01 -0.08 -8.94 -0.08C-8.88 -0.08 -8.62 -0.01 -8.17 0.14C-7.72 0.29 -7.22 0.37 -6.67 0.37C-5.64 0.37 -4.73 0.06 -3.95 -0.56C-3.17 -1.18 -2.78 -2.02 -2.78 -3.08C-2.78 -4.14 -3.24 -5.08 -4.14 -5.88C-4.54 -6.24 -5.17 -6.67 -6.04 -7.17C-6.91 -7.68 -7.54 -8.12 -7.92 -8.48C-8.3 -8.85 -8.49 -9.18 -8.49 -9.48C-8.49 -9.78 -8.44 -10.07 -8.35 -10.35C-8.06 -11.19 -7.5 -11.6 -6.67 -11.6C-6.04 -11.6 -5.5 -11.37 -5.07 -10.91C-4.64 -10.45 -4.32 -9.92 -4.1 -9.32C-4.02 -9.1 -3.9 -8.99 -3.75 -8.99C-3.61 -8.99 -3.53 -9.09 -3.53 -9.29Z M1.97 0L8.03 0C8.12 -0.02 8.16 -0.1 8.16 -0.23C8.16 -0.37 7.95 -0.46 7.52 -0.52C6.55 -0.66 6.06 -1.18 6.06 -2.06L6.06 -12.27C6.06 -12.48 5.98 -12.59 5.83 -12.59C5.8 -12.59 5.73 -12.57 5.62 -12.51L2.16 -10.88C2.02 -10.81 1.95 -10.72 1.95 -10.62C1.95 -10.51 1.97 -10.44 2 -10.41C2.03 -10.38 2.11 -10.35 2.23 -10.31C2.36 -10.27 2.52 -10.24 2.73 -10.2C2.94 -10.15 3.13 -10.1 3.31 -10.04C3.73 -9.89 3.94 -9.63 3.94 -9.25L3.94 -2.06C3.94 -1.18 3.45 -0.66 2.47 -0.52C2.05 -0.46 1.83 -0.35 1.83 -0.19C1.83 -0.08 1.88 -0.02 1.97 0ZM3.81 -16.76C4.09 -16.53 4.43 -16.41 4.8 -16.41C5.18 -16.41 5.49 -16.55 5.73 -16.83C5.98 -17.1 6.1 -17.41 6.1 -17.74C6.1 -18.08 5.97 -18.39 5.71 -18.68C5.45 -18.97 5.14 -19.11 4.76 -19.11C4.38 -19.11 4.06 -18.99 3.79 -18.75C3.52 -18.5 3.38 -18.17 3.38 -17.75C3.38 -17.33 3.52 -17 3.81 -16.76Z M21.69 -11.82C21.6 -11.82 21.36 -11.89 20.96 -12.03C20.56 -12.17 19.99 -12.24 19.26 -12.24C17.46 -12.24 15.92 -11.59 14.64 -10.28C14.06 -9.69 13.61 -8.99 13.28 -8.2C12.94 -7.41 12.78 -6.61 12.78 -5.81C12.78 -5.01 12.87 -4.25 13.06 -3.53C13.47 -2 14.26 -0.88 15.42 -0.18C16.86 0.7 18.64 0.52 20.75 -0.73C21.44 -1.14 21.82 -1.34 21.88 -1.34C21.93 -1.34 21.95 -1.3 21.95 -1.21L21.95 0.03C21.95 0.25 21.99 0.37 22.07 0.37C22.14 0.37 22.23 0.34 22.34 0.29L25.96 -1.21C26.09 -1.27 26.16 -1.36 26.16 -1.46C26.16 -1.56 26.13 -1.62 26.08 -1.62L25.29 -1.56C24.88 -1.56 24.59 -1.65 24.41 -1.82C24.23 -1.99 24.11 -2.28 24.07 -2.68L24.07 -22.02C24.07 -22.24 23.99 -22.35 23.84 -22.35C23.81 -22.35 23.74 -22.32 23.63 -22.27L20.17 -20.64C20.03 -20.56 19.97 -20.48 19.97 -20.37C19.97 -20.27 19.98 -20.2 20.01 -20.17C20.05 -20.14 20.12 -20.1 20.24 -20.07C20.37 -20.03 20.53 -19.99 20.74 -19.95C20.95 -19.91 21.14 -19.86 21.32 -19.79C21.74 -19.65 21.95 -19.39 21.95 -19.01L21.95 -12C21.91 -11.89 21.88 -11.83 21.86 -11.83C21.84 -11.82 21.78 -11.82 21.69 -11.82ZM15.97 -2.6C15.21 -3.63 14.83 -4.83 14.83 -6.2C14.83 -7.57 15.18 -8.76 15.87 -9.77C16.56 -10.78 17.51 -11.29 18.71 -11.29C19.91 -11.29 20.87 -10.79 21.6 -9.79C21.83 -9.56 21.95 -9.36 21.95 -9.18L21.95 -2.17C21.95 -2.02 21.63 -1.8 21 -1.5C20.36 -1.21 19.75 -1.06 19.15 -1.06C17.79 -1.06 16.73 -1.57 15.97 -2.6Z M30.17 0L36.23 0C36.32 -0.02 36.36 -0.1 36.36 -0.23C36.36 -0.37 36.15 -0.46 35.72 -0.52C34.74 -0.66 34.26 -1.18 34.26 -2.06L34.26 -12.27C34.26 -12.48 34.18 -12.59 34.02 -12.59C34 -12.59 33.93 -12.57 33.82 -12.51L30.36 -10.88C30.22 -10.81 30.15 -10.72 30.15 -10.62C30.15 -10.51 30.17 -10.44 30.2 -10.41C30.23 -10.38 30.31 -10.35 30.43 -10.31C30.55 -10.27 30.72 -10.24 30.93 -10.2C31.14 -10.15 31.33 -10.1 31.51 -10.04C31.93 -9.89 32.14 -9.63 32.14 -9.25L32.14 -2.06C32.14 -1.18 31.65 -0.66 30.67 -0.52C30.24 -0.46 30.03 -0.35 30.03 -0.19C30.03 -0.08 30.08 -0.02 30.17 0ZM32.01 -16.76C32.29 -16.53 32.62 -16.41 33 -16.41C33.37 -16.41 33.68 -16.55 33.93 -16.83C34.17 -17.1 34.3 -17.41 34.3 -17.74C34.3 -18.08 34.17 -18.39 33.91 -18.68C33.65 -18.97 33.33 -19.11 32.96 -19.11C32.58 -19.11 32.26 -18.99 31.99 -18.75C31.71 -18.5 31.58 -18.17 31.58 -17.75C31.58 -17.33 31.72 -17 32.01 -16.76Z M42.74 -10.7C41.47 -9.42 40.84 -7.89 40.84 -6.11C40.84 -4.33 41.46 -2.8 42.69 -1.54C43.92 -0.27 45.47 0.37 47.34 0.37C49.2 0.37 50.75 -0.26 51.99 -1.51C53.22 -2.77 53.84 -4.31 53.84 -6.14C53.84 -7.97 53.19 -9.51 51.89 -10.75C50.58 -12 49.05 -12.62 47.28 -12.62C45.51 -12.62 44 -11.98 42.74 -10.7ZM44.22 -2.61C43.47 -3.9 43.1 -5.28 43.1 -6.73C43.1 -8.19 43.41 -9.39 44.04 -10.33C44.67 -11.28 45.53 -11.75 46.63 -11.75C48.12 -11.75 49.31 -11.02 50.19 -9.56C51.08 -8.11 51.52 -6.68 51.52 -5.3C51.52 -3.91 51.2 -2.74 50.58 -1.79C49.95 -0.84 49.04 -0.37 47.85 -0.37C46.32 -0.37 45.11 -1.11 44.22 -2.61Z M68.57 -4.28C68.57 -3.36 68.53 -2.68 68.46 -2.23C68.46 -1.24 67.97 -0.68 67 -0.54C66.58 -0.48 66.37 -0.36 66.37 -0.19C66.37 -0.08 66.41 -0.02 66.5 0L73.05 0C73.14 -0.02 73.18 -0.08 73.18 -0.19C73.18 -0.3 73.14 -0.37 73.06 -0.41C72.97 -0.44 72.79 -0.48 72.51 -0.52C72.24 -0.56 71.95 -0.63 71.65 -0.73C70.94 -0.95 70.59 -1.41 70.59 -2.12L70.59 -2.91L70.71 -6.87C70.71 -10.69 69.67 -12.59 67.57 -12.59C67.06 -12.59 66.41 -12.41 65.62 -12.05C64.83 -11.69 64.05 -11.31 63.27 -10.92C62.93 -10.76 62.74 -10.68 62.68 -10.68C62.64 -10.68 62.6 -10.72 62.57 -10.81L62.57 -12.93C62.57 -13.15 62.5 -13.26 62.34 -13.26C62.32 -13.26 62.25 -13.23 62.14 -13.18L58.68 -11.55C58.54 -11.47 58.47 -11.39 58.47 -11.28C58.47 -11.18 58.49 -11.11 58.52 -11.08C58.55 -11.05 58.63 -11.01 58.75 -10.98C58.87 -10.94 59.04 -10.9 59.25 -10.86C59.45 -10.82 59.65 -10.77 59.83 -10.71C60.25 -10.56 60.46 -10.3 60.46 -9.92L60.46 -2.12C60.46 -1.2 59.97 -0.68 58.99 -0.54C58.56 -0.48 58.35 -0.36 58.35 -0.19C58.35 -0.08 58.4 -0.02 58.49 0L64.54 0C64.64 -0.02 64.68 -0.1 64.68 -0.24C64.68 -0.38 64.47 -0.48 64.04 -0.54C63.06 -0.68 62.57 -1.2 62.57 -2.12L62.57 -9.43C62.58 -9.55 62.7 -9.67 62.93 -9.81C64.61 -10.62 65.72 -11.03 66.24 -11.03C66.76 -11.03 67.17 -10.91 67.48 -10.67C67.79 -10.43 68.04 -10.08 68.24 -9.6C68.44 -9.13 68.54 -8.31 68.54 -7.15Z"></path></g></g></g></svg>