<svg xmlns="http://www.w3.org/2000/svg" id="SvgjsSvg20266" width="2420.0786568525964" height="4096" version="1.1" xmlns:xlink="http://www.w3.org/1999/xlink" xmlns:svgjs="http://svgjs.com/svgjs"><defs id="SvgjsDefs20267"></defs><rect id="SvgjsRect20268" width="2420.0786568525964" height="4096" fill="#000000"></rect><g id="SvgjsG20269" transform="translate(327.9999999999999, 328) scale(34.4)" opacity="1"><defs id="SvgjsDefs6822"></defs><g id="SvgjsG6823" transform="scale(0.35223670306445937)" opacity="1"><g id="SvgjsG6824" class="qr41WJpvR" transform="translate(-47.577116829185215, -10.850027315603967) scale(2.411117181245329)" stroke="#d4af37" stroke-width="1.5237433962264144px" light-content="false" non-strokable="false" fill="#d4af37"><path d="M49.557 4.757l.877.48-24.657 45.006-.877-.48z"></path><path d="M50 95.5h-.296L24.763 50l20.944-38.209C49.704 4.5 49.704 4.5 50 4.5h.296L75.237 50 54.293 88.209C50.296 95.5 50.296 95.5 50 95.5zM25.904 50L50 93.96 74.097 50 50 6.04 25.904 50z"></path></g><g id="SvgjsG6825" class="text" transform="translate(64.16486380806694, 148.48932976132463) scale(1)" light-content="false" fill="#ffffff"><path d="M9.55 -76.24L8.93 -76.74C8.1 -76.74 7.07 -76.51 5.83 -76.05C4.59 -75.6 3.84 -75.04 3.6 -74.38L-21.2 -30.12C-26.82 -28.31 -32.07 -27.27 -36.94 -27.02C-37.85 -26.94 -38.31 -26.38 -38.31 -25.35C-38.31 -24.32 -38.06 -23.8 -37.56 -23.8C-33.1 -24.3 -28.26 -25.33 -23.06 -26.9L-39.55 2.6C-39.55 3.02 -39.19 3.22 -38.49 3.22C-37.79 3.22 -36.78 2.93 -35.45 2.36C-34.13 1.78 -33.22 0.95 -32.73 -0.12C-30 -4.75 -24.5 -14.46 -16.24 -29.26C-1.78 -34.79 11.01 -42.64 22.13 -52.81C33.24 -62.98 38.8 -71.82 38.8 -79.34C38.8 -88.02 30.95 -92.36 15.25 -92.36C5.83 -92.36 -5.12 -89.9 -17.6 -84.98C-30.08 -80.06 -40.81 -74.05 -49.77 -66.94C-58.74 -59.83 -63.22 -53.43 -63.22 -47.73C-63.22 -41.2 -60.04 -37.93 -53.68 -37.93C-49.05 -37.93 -43.31 -39.57 -36.45 -42.83C-29.59 -46.1 -23.72 -49.69 -18.84 -53.62C-13.97 -57.54 -11.53 -60.45 -11.53 -62.36C-11.53 -62.93 -11.8 -63.22 -12.33 -63.22C-12.87 -63.22 -13.47 -62.69 -14.13 -61.61C-19.42 -55.91 -25.39 -51.34 -32.05 -47.91C-38.7 -44.48 -44.46 -42.77 -49.34 -42.77C-55.12 -42.77 -58.02 -45.08 -58.02 -49.71C-58.02 -55.17 -54.13 -60.95 -46.36 -67.07C-38.6 -73.18 -29.3 -78.22 -18.47 -82.19C-7.64 -86.16 2.07 -88.14 10.66 -88.14C25.37 -88.14 32.73 -84.22 32.73 -76.36C32.73 -69.84 27.93 -62.17 18.35 -53.37C8.76 -44.57 -2.15 -37.64 -14.38 -32.6C0.41 -58.97 8.1 -72.79 8.68 -74.07C9.26 -75.35 9.55 -76.07 9.55 -76.24Z M45.87 -58.26C50.33 -58.26 55 -60.54 59.88 -65.08C64.75 -69.63 67.27 -75.25 67.44 -81.94C71.07 -82.85 74.75 -83.39 78.47 -83.55C79.22 -83.8 79.59 -84.34 79.59 -85.17C79.59 -85.99 79.53 -86.47 79.4 -86.59C79.28 -86.72 78.39 -86.78 76.74 -86.78C75.08 -86.78 71.94 -86.03 67.31 -84.55C66.49 -91.57 61.9 -95.08 53.55 -95.08C48.26 -95.08 42.67 -93.64 36.76 -90.74C30.85 -87.85 25.74 -83.7 21.45 -78.29C17.15 -72.87 15 -67.44 15 -61.98C15 -56.53 16.3 -50.02 18.91 -42.46C21.51 -34.9 22.81 -29.34 22.81 -25.79C22.81 -24.38 22.64 -22.52 22.31 -20.21C14.63 -18.88 6.8 -16.63 -1.18 -13.45C-9.15 -10.27 -16.03 -6.32 -21.82 -1.61C-27.6 3.1 -30.5 7.77 -30.5 12.4C-30.5 15.7 -27.69 17.36 -22.07 17.36C-18.43 17.36 -14.24 16.57 -9.48 15C-4.73 13.43 0 11.22 4.71 8.37C9.42 5.52 13.7 1.8 17.54 -2.79C21.38 -7.38 24.01 -12.31 25.41 -17.6C27.64 -17.93 29.96 -18.1 32.36 -18.1C38.88 -18.1 42.15 -16.69 42.15 -13.88C42.15 -12.48 40.91 -11.07 38.43 -9.67C38.1 -9.42 37.93 -9.13 37.93 -8.8C37.93 -8.47 38.26 -8.1 38.93 -7.69C41.07 -9.01 42.6 -10.17 43.51 -11.16C44.42 -12.15 44.88 -13.39 44.88 -14.88C44.88 -19.09 40.87 -21.2 32.85 -21.2C31.45 -21.2 29.17 -21.03 26.03 -20.7C26.36 -23.18 26.53 -25.08 26.53 -26.41C26.53 -31.69 25.29 -38.35 22.81 -46.36C20.33 -54.38 19.09 -59.22 19.09 -60.87C19.09 -65.66 20.14 -70.06 22.25 -74.07C24.36 -78.08 27.09 -81.3 30.43 -83.74C33.78 -86.18 37.33 -88.06 41.1 -89.38C44.86 -90.7 48.49 -91.36 52 -91.36C55.52 -91.36 58.47 -90.72 60.87 -89.44C63.26 -88.16 64.75 -86.32 65.33 -83.93C58.72 -81.53 53.02 -78.43 48.22 -74.63C43.43 -70.83 41.03 -66.78 41.03 -62.48C41.03 -59.67 42.64 -58.26 45.87 -58.26ZM-25.66 9.3C-25.66 5.5 -23.06 1.71 -17.85 -2.05C-12.64 -5.81 -6.51 -8.97 0.56 -11.53C7.62 -14.09 14.67 -15.95 21.69 -17.11C20.45 -12.23 18.2 -7.79 14.94 -3.78C11.67 0.23 8.02 3.39 3.97 5.7C-4.3 10.5 -11.78 12.89 -18.47 12.89C-23.26 12.89 -25.66 11.69 -25.66 9.3ZM45 -63.22C45 -67.03 46.98 -70.54 50.95 -73.76C54.92 -76.98 59.79 -79.5 65.58 -81.32C65.5 -76.2 63.24 -71.51 58.82 -67.25C54.4 -63 50.62 -60.87 47.48 -60.87C45.83 -60.87 45 -61.65 45 -63.22Z"></path></g><g id="SvgjsG6826" class="text" transform="translate(72.34453290863831, 275.24033247172287) scale(1)" light-content="false" fill="#ffffff"><path d="M-46.11 -18.93L-46.86 -18.83C-47.19 -18.91 -47.76 -19.07 -48.59 -19.3C-49.42 -19.54 -50.17 -19.66 -50.86 -19.66C-52.18 -19.66 -53.36 -19.25 -54.38 -18.42C-55.41 -17.6 -55.92 -16.55 -55.92 -15.26C-55.92 -13.98 -55.46 -12.81 -54.53 -11.76C-53.93 -11.09 -53.13 -10.41 -52.13 -9.73C-51.13 -9.06 -50.36 -8.53 -49.83 -8.15C-47.95 -6.8 -47.01 -5.33 -47.01 -3.76C-47.01 -2.78 -47.37 -1.98 -48.09 -1.37C-48.81 -0.75 -49.67 -0.45 -50.68 -0.45C-52.88 -0.45 -54.46 -1.46 -55.41 -3.49C-55.61 -4.21 -55.84 -4.58 -56.1 -4.58C-56.2 -4.58 -56.26 -4.55 -56.28 -4.5C-56.3 -4.45 -56.31 -4.36 -56.31 -4.22C-56.31 -4.08 -56.18 -2.89 -55.92 -0.65C-55.89 -0.46 -55.82 -0.37 -55.7 -0.37L-55.04 -0.5C-55.01 -0.51 -54.95 -0.51 -54.84 -0.51C-54.74 -0.51 -54.58 -0.47 -54.35 -0.38C-54.12 -0.29 -53.72 -0.14 -53.13 0.06C-52.53 0.26 -51.74 0.37 -50.74 0.37C-49.17 0.37 -47.81 -0.09 -46.63 -1.01C-45.45 -1.92 -44.86 -3.15 -44.86 -4.68C-44.94 -6.06 -45.46 -7.29 -46.4 -8.39C-47.01 -9.11 -48.03 -9.96 -49.46 -10.97C-50 -11.35 -50.54 -11.74 -51.06 -12.12C-51.58 -12.5 -52.05 -12.89 -52.46 -13.31C-52.86 -13.72 -53.19 -14.17 -53.44 -14.66C-53.68 -15.15 -53.81 -15.72 -53.81 -16.39C-53.81 -17.05 -53.48 -17.63 -52.81 -18.11C-52.14 -18.6 -51.43 -18.84 -50.68 -18.84C-49.44 -18.84 -48.32 -18.37 -47.32 -17.41C-46.92 -17 -46.62 -16.59 -46.43 -16.18C-46.38 -16.07 -46.33 -15.96 -46.28 -15.85C-46.23 -15.74 -46.18 -15.65 -46.15 -15.56C-46.11 -15.48 -46.07 -15.41 -46.04 -15.38C-46 -15.34 -45.91 -15.32 -45.77 -15.32C-45.63 -15.32 -45.56 -15.35 -45.56 -15.4C-45.56 -15.45 -45.58 -15.56 -45.62 -15.74L-45.97 -18.63C-45.97 -18.83 -46.02 -18.93 -46.11 -18.93Z M-37.74 -7.13L-29.89 -7.13C-29.7 -7.13 -29.61 -7.33 -29.61 -7.72C-29.61 -8.6 -30.02 -9.63 -30.85 -10.8C-31.68 -11.96 -32.75 -12.55 -34.06 -12.55C-35.88 -12.55 -37.32 -11.85 -38.36 -10.44C-39.4 -9.03 -39.92 -7.47 -39.92 -5.76C-39.92 -4.05 -39.44 -2.62 -38.49 -1.48C-38.04 -0.93 -37.49 -0.48 -36.86 -0.14C-36.23 0.2 -35.61 0.37 -34.99 0.37C-34.38 0.37 -33.83 0.28 -33.34 0.11C-31.93 -0.38 -30.69 -1.26 -29.65 -2.53C-29.69 -2.56 -29.74 -2.62 -29.79 -2.7C-29.84 -2.79 -29.89 -2.83 -29.95 -2.83L-30.01 -2.83C-30.04 -2.83 -30.06 -2.82 -30.08 -2.8C-31.22 -1.74 -32.4 -1.2 -33.63 -1.2C-34.87 -1.2 -35.9 -1.68 -36.73 -2.63C-37.56 -3.57 -37.97 -4.75 -37.97 -6.15C-37.97 -6.8 -37.9 -7.13 -37.74 -7.13ZM-37.59 -8.43L-37.59 -8.6C-37.44 -9.38 -37.09 -10.08 -36.53 -10.69C-35.98 -11.31 -35.36 -11.62 -34.68 -11.62C-33.99 -11.62 -33.35 -11.27 -32.77 -10.59C-32.19 -9.91 -31.89 -9.25 -31.89 -8.6C-31.89 -8.32 -32.01 -8.18 -32.25 -8.18L-37.35 -8.18C-37.51 -8.18 -37.59 -8.26 -37.59 -8.43Z M-13.93 -10.92C-13.93 -11.01 -13.96 -11.09 -14 -11.18C-14.17 -11.58 -14.47 -11.91 -14.89 -12.17C-15.32 -12.43 -16.18 -12.56 -17.48 -12.56C-19.58 -12.56 -21.2 -12.04 -22.34 -11.01C-23.63 -9.82 -24.28 -7.89 -24.29 -5.2C-24.29 -3.75 -23.8 -2.45 -22.83 -1.33C-21.86 -0.2 -20.62 0.37 -19.1 0.37C-17.01 0.37 -15.27 -0.6 -13.89 -2.52C-13.84 -2.57 -13.81 -2.65 -13.81 -2.75C-13.81 -2.86 -13.84 -2.94 -13.91 -2.99C-13.97 -3.05 -14.03 -3.07 -14.08 -3.07C-14.14 -3.07 -14.3 -2.92 -14.57 -2.63C-15.45 -1.63 -16.45 -1.14 -17.56 -1.14C-19.05 -1.14 -20.16 -1.64 -20.88 -2.65C-21.6 -3.65 -21.96 -4.95 -21.96 -6.54C-21.96 -7.28 -21.82 -8.02 -21.54 -8.77C-21.04 -10.13 -20.32 -11.01 -19.38 -11.43C-18.45 -11.84 -17.66 -11.78 -17.01 -11.25C-16.85 -11.12 -16.71 -10.99 -16.57 -10.84C-16.43 -10.69 -16.23 -10.51 -15.97 -10.3C-15.71 -10.08 -15.4 -9.98 -15.03 -9.98C-14.3 -9.98 -13.93 -10.29 -13.93 -10.92Z M0.12 -1.19L0.12 0.03C0.12 0.25 0.15 0.37 0.23 0.37C0.31 0.37 0.4 0.34 0.51 0.28L4.11 -1.2C4.25 -1.27 4.31 -1.35 4.31 -1.46C4.31 -1.56 4.29 -1.61 4.23 -1.61L3.45 -1.56C3.04 -1.56 2.75 -1.64 2.57 -1.81C2.39 -1.99 2.27 -2.27 2.23 -2.67L2.23 -12.28C2.23 -12.46 2.18 -12.55 2.07 -12.55C1.97 -12.55 1.86 -12.53 1.75 -12.5L-1.35 -11.6C-1.49 -11.57 -1.56 -11.46 -1.56 -11.3C-1.56 -11.13 -1.41 -11.04 -1.11 -11.02C-0.81 -11 -0.52 -10.88 -0.24 -10.64C-0.03 -10.45 0.09 -10.23 0.12 -9.96L0.12 -2.63C-0.03 -2.42 -0.21 -2.23 -0.43 -2.06C-1.12 -1.53 -1.9 -1.26 -2.77 -1.26C-3.64 -1.26 -4.36 -1.43 -4.92 -1.77C-5.48 -2.12 -5.76 -2.6 -5.76 -3.24L-5.76 -12.32C-5.76 -12.47 -5.81 -12.55 -5.91 -12.55C-6.02 -12.55 -6.12 -12.53 -6.23 -12.5L-9.33 -11.6C-9.48 -11.57 -9.55 -11.46 -9.55 -11.3C-9.55 -11.13 -9.4 -11.04 -9.1 -11.02C-8.79 -11 -8.5 -10.88 -8.22 -10.64C-8.02 -10.45 -7.9 -10.23 -7.87 -9.96L-7.87 -1.71C-7.87 -1.31 -7.78 -0.97 -7.6 -0.7C-7.1 0.02 -6.29 0.38 -5.16 0.38C-4.04 0.38 -2.63 -0.04 -0.94 -0.88C-0.43 -1.14 -0.13 -1.3 -0.06 -1.35C0.01 -1.4 0.07 -1.34 0.12 -1.19Z M17.08 -9.71C17.28 -9.71 17.49 -9.92 17.7 -10.34C17.91 -10.77 18.01 -11.08 18.01 -11.29C18.01 -11.46 17.68 -11.67 17.03 -11.93C16.37 -12.18 15.89 -12.31 15.57 -12.31C15.01 -12.31 14.31 -11.71 13.45 -10.51C13.15 -10.08 12.97 -9.87 12.89 -9.87C12.84 -9.87 12.81 -9.92 12.81 -10.03L12.81 -12.22C12.81 -12.44 12.74 -12.55 12.58 -12.55C12.55 -12.55 12.49 -12.52 12.38 -12.47L8.93 -10.84C8.79 -10.77 8.72 -10.68 8.72 -10.58C8.72 -10.48 8.74 -10.41 8.77 -10.38C8.8 -10.34 8.88 -10.31 9 -10.27C9.12 -10.24 9.29 -10.2 9.5 -10.16C9.7 -10.12 9.9 -10.07 10.08 -10C10.49 -9.86 10.7 -9.6 10.7 -9.22L10.7 -2.06C10.7 -1.17 10.21 -0.66 9.24 -0.51C8.81 -0.46 8.6 -0.35 8.6 -0.19C8.6 -0.08 8.65 -0.02 8.74 0L15.52 0C15.61 -0.02 15.65 -0.08 15.65 -0.18C15.65 -0.29 15.61 -0.36 15.53 -0.39C15.44 -0.43 15.25 -0.47 14.95 -0.51C14.65 -0.55 14.33 -0.61 13.99 -0.7C13.2 -0.93 12.81 -1.38 12.81 -2.06L12.81 -8.18C12.81 -8.6 13.04 -9.08 13.51 -9.6C13.97 -10.13 14.42 -10.4 14.84 -10.4C15.27 -10.4 15.85 -10.23 16.6 -9.88C16.81 -9.78 16.97 -9.72 17.08 -9.71Z M21.73 0L27.77 0C27.86 -0.02 27.9 -0.09 27.9 -0.23C27.9 -0.37 27.69 -0.46 27.27 -0.51C26.29 -0.66 25.81 -1.17 25.81 -2.06L25.81 -12.22C25.81 -12.44 25.73 -12.55 25.58 -12.55C25.55 -12.55 25.48 -12.52 25.37 -12.47L21.92 -10.84C21.78 -10.77 21.72 -10.68 21.72 -10.58C21.72 -10.48 21.73 -10.41 21.76 -10.38C21.8 -10.34 21.87 -10.31 21.99 -10.27C22.12 -10.24 22.28 -10.2 22.49 -10.16C22.7 -10.12 22.89 -10.07 23.07 -10C23.49 -9.86 23.69 -9.6 23.69 -9.22L23.69 -2.06C23.69 -1.17 23.21 -0.66 22.23 -0.51C21.81 -0.46 21.6 -0.35 21.6 -0.19C21.6 -0.08 21.64 -0.02 21.73 0ZM23.56 -16.71C23.85 -16.47 24.18 -16.35 24.55 -16.35C24.93 -16.35 25.24 -16.49 25.48 -16.77C25.72 -17.04 25.85 -17.35 25.85 -17.68C25.85 -18.01 25.72 -18.33 25.46 -18.61C25.2 -18.9 24.89 -19.05 24.51 -19.05C24.14 -19.05 23.82 -18.93 23.54 -18.68C23.27 -18.44 23.14 -18.11 23.14 -17.69C23.14 -17.27 23.28 -16.94 23.56 -16.71Z M35.59 -10.41L39.66 -10.41C39.74 -10.41 39.77 -10.44 39.77 -10.49C39.77 -11.61 39.57 -12.17 39.18 -12.17L35.73 -12.17C35.58 -12.18 35.51 -12.27 35.51 -12.43C35.82 -13.59 35.97 -14.18 35.97 -14.2C35.97 -14.33 35.89 -14.39 35.74 -14.39C35.59 -14.39 35.36 -14.22 35.07 -13.88C34.78 -13.53 34.55 -13.26 34.4 -13.06C34.25 -12.87 34.12 -12.72 34.03 -12.62C33.19 -11.82 32.54 -11.27 32.06 -10.97C31.99 -10.92 31.97 -10.82 31.98 -10.65C32 -10.49 32.13 -10.41 32.38 -10.41L33.4 -10.41L33.4 -2.87C33.4 -1.99 33.65 -1.23 34.16 -0.59C34.67 0.05 35.43 0.37 36.44 0.37C37.44 0.37 38.49 -0.33 39.57 -1.73C39.62 -1.8 39.64 -1.94 39.64 -2.15C39.64 -2.22 39.57 -2.25 39.45 -2.25C39.32 -2.25 39.18 -2.19 39.02 -2.06C38.85 -1.94 38.67 -1.81 38.47 -1.67C38.26 -1.52 38.02 -1.39 37.75 -1.27C37.47 -1.14 37.15 -1.08 36.78 -1.08C36.41 -1.08 36.11 -1.24 35.87 -1.54C35.63 -1.85 35.51 -2.27 35.51 -2.82L35.51 -10.29C35.51 -10.37 35.54 -10.41 35.59 -10.41Z M57.04 -12.18L51.91 -12.18C51.72 -12.18 51.62 -12.11 51.62 -11.95C51.62 -11.69 51.84 -11.56 52.29 -11.56C52.73 -11.56 53.08 -11.43 53.34 -11.15C53.6 -10.88 53.73 -10.63 53.73 -10.38C53.73 -10.14 53.65 -9.77 53.5 -9.29C53.36 -8.8 52.67 -7 51.44 -3.89C51.23 -3.34 51.12 -3.05 51.1 -3.01C50.92 -2.52 50.74 -2.5 50.56 -2.96L47.05 -10.48L46.93 -10.8C46.93 -11.34 47.28 -11.62 47.97 -11.62C48.41 -11.62 48.69 -11.64 48.81 -11.69C48.94 -11.74 49 -11.83 49 -11.97C49 -12.11 48.97 -12.18 48.89 -12.18L42.87 -12.18C42.65 -12.18 42.55 -12.09 42.55 -11.9C42.55 -11.71 42.74 -11.6 43.11 -11.56C43.2 -11.55 43.28 -11.54 43.34 -11.52C44.16 -11.26 44.73 -10.67 45.06 -9.76L49.53 -0.43C49.71 -0.21 49.8 -0.02 49.8 0.14C49.8 0.29 49.04 2.06 47.53 5.46C47.48 5.57 47.33 5.75 47.08 5.99C46.83 6.23 46.6 6.38 46.4 6.45C46.19 6.52 46 6.59 45.81 6.67C45.62 6.76 45.45 6.86 45.31 6.99C45.17 7.12 45.1 7.33 45.1 7.61C45.1 7.9 45.2 8.15 45.39 8.35C45.58 8.56 45.83 8.66 46.15 8.66C46.87 8.66 47.34 8.42 47.57 7.95L48.45 6.08L54.81 -9.69C55.05 -10.25 55.27 -10.69 55.47 -11.01C55.68 -11.32 55.92 -11.5 56.18 -11.55C56.44 -11.6 56.63 -11.64 56.75 -11.66C56.88 -11.67 56.97 -11.69 57.04 -11.72C57.11 -11.74 57.15 -11.77 57.17 -11.8C57.18 -11.83 57.19 -11.89 57.19 -11.99C57.19 -12.09 57.14 -12.16 57.04 -12.18Z"></path></g><g id="SvgjsG6827" class="text" transform="translate(72.66, 248.68166349332498) scale(1)" light-content="false" fill="#d4af37"><path d="M-71.85 0L-63.75 0C-63.68 0 -63.64 -0.04 -63.64 -0.11L-63.64 -0.43C-63.64 -0.51 -63.69 -0.54 -63.78 -0.54C-63.87 -0.54 -64.04 -0.56 -64.3 -0.6C-64.57 -0.64 -64.76 -0.67 -64.87 -0.69C-65.75 -0.83 -66.32 -1.01 -66.59 -1.25C-66.86 -1.48 -67 -1.85 -67 -2.34L-67 -7.91C-67 -8.03 -66.93 -8.1 -66.8 -8.1L-66.69 -8.1L-62.63 -7.93C-62.07 -7.94 -61.5 -8.11 -60.92 -8.44C-60.34 -8.77 -59.82 -9.2 -59.36 -9.73C-58.31 -10.93 -57.78 -12.27 -57.78 -13.75C-57.78 -15.22 -58.32 -16.49 -59.39 -17.54C-60.46 -18.6 -61.81 -19.18 -63.42 -19.29L-64.79 -19.29L-72.39 -19.09L-72.48 -19.09C-72.6 -19.06 -72.66 -18.98 -72.66 -18.86C-72.66 -18.64 -72.56 -18.53 -72.37 -18.53L-71.76 -18.53C-70.96 -18.53 -70.41 -18.42 -70.1 -18.19C-69.79 -17.96 -69.64 -17.43 -69.64 -16.6L-69.64 -2.3C-69.64 -1.46 -70.1 -0.94 -71.02 -0.73C-71.11 -0.71 -71.24 -0.68 -71.42 -0.62C-71.59 -0.57 -71.73 -0.54 -71.82 -0.54C-71.91 -0.54 -71.95 -0.51 -71.95 -0.43L-71.95 -0.27C-71.95 -0.09 -71.92 0 -71.85 0ZM-66.25 -18.59C-66.13 -18.6 -66.01 -18.6 -65.9 -18.61L-65.58 -18.62C-65.47 -18.63 -65.35 -18.63 -65.23 -18.63C-63.79 -18.63 -62.64 -18.22 -61.78 -17.41C-60.92 -16.6 -60.49 -15.45 -60.49 -13.98C-60.49 -12.5 -60.93 -11.28 -61.82 -10.3C-62.71 -9.33 -63.88 -8.84 -65.33 -8.84L-66.71 -8.92C-66.86 -8.93 -66.94 -9.03 -66.97 -9.22L-67 -9.63L-67 -18.36C-67 -18.5 -66.9 -18.58 -66.71 -18.58C-66.52 -18.58 -66.37 -18.59 -66.25 -18.59Z M-44.85 -9.71C-44.65 -9.71 -44.44 -9.92 -44.23 -10.34C-44.02 -10.77 -43.92 -11.08 -43.92 -11.29C-43.92 -11.46 -44.25 -11.67 -44.9 -11.93C-45.56 -12.18 -46.04 -12.31 -46.36 -12.31C-46.92 -12.31 -47.62 -11.71 -48.48 -10.51C-48.78 -10.08 -48.96 -9.87 -49.04 -9.87C-49.09 -9.87 -49.12 -9.92 -49.12 -10.03L-49.12 -12.22C-49.12 -12.44 -49.19 -12.55 -49.35 -12.55C-49.38 -12.55 -49.44 -12.52 -49.55 -12.47L-53 -10.84C-53.14 -10.77 -53.21 -10.68 -53.21 -10.58C-53.21 -10.48 -53.19 -10.41 -53.16 -10.38C-53.13 -10.34 -53.05 -10.31 -52.93 -10.27C-52.81 -10.24 -52.64 -10.2 -52.43 -10.16C-52.23 -10.12 -52.03 -10.07 -51.85 -10C-51.44 -9.86 -51.23 -9.6 -51.23 -9.22L-51.23 -2.06C-51.23 -1.17 -51.72 -0.66 -52.69 -0.51C-53.12 -0.46 -53.33 -0.35 -53.33 -0.19C-53.33 -0.08 -53.28 -0.02 -53.19 0L-46.41 0C-46.32 -0.02 -46.28 -0.08 -46.28 -0.18C-46.28 -0.29 -46.32 -0.36 -46.4 -0.39C-46.49 -0.43 -46.68 -0.47 -46.98 -0.51C-47.28 -0.55 -47.6 -0.61 -47.94 -0.7C-48.73 -0.93 -49.12 -1.38 -49.12 -2.06L-49.12 -8.18C-49.12 -8.6 -48.89 -9.08 -48.42 -9.6C-47.96 -10.13 -47.51 -10.4 -47.09 -10.4C-46.66 -10.4 -46.08 -10.23 -45.33 -9.88C-45.12 -9.78 -44.96 -9.72 -44.85 -9.71Z M-31.5 -1.67C-31.72 -1.81 -31.83 -2 -31.83 -2.23L-31.83 -9.37C-31.83 -10.23 -32.19 -10.98 -32.9 -11.61C-33.62 -12.24 -34.54 -12.55 -35.68 -12.55C-36.82 -12.55 -37.83 -12.14 -38.71 -11.32C-39.09 -10.97 -39.38 -10.58 -39.59 -10.15C-39.8 -9.73 -39.9 -9.34 -39.9 -9C-39.9 -8.65 -39.83 -8.47 -39.69 -8.47C-39.6 -8.49 -39.25 -8.63 -38.66 -8.88C-38.06 -9.13 -37.74 -9.31 -37.68 -9.42L-37.75 -9.95C-37.75 -10.48 -37.56 -10.89 -37.19 -11.18C-36.81 -11.47 -36.44 -11.62 -36.08 -11.62C-35.71 -11.62 -35.4 -11.55 -35.14 -11.41C-34.34 -11 -33.95 -10.28 -33.95 -9.26L-33.95 -6.66C-33.95 -6.61 -33.96 -6.55 -33.98 -6.48C-34 -6.42 -34.23 -6.28 -34.65 -6.05C-35.07 -5.83 -35.56 -5.64 -36.1 -5.5C-37.7 -5.08 -38.78 -4.65 -39.35 -4.2C-39.92 -3.75 -40.2 -3.14 -40.2 -2.37C-40.2 -1.98 -40.12 -1.62 -39.96 -1.27C-39.62 -0.6 -39.08 -0.13 -38.34 0.16C-37.59 0.45 -36.85 0.38 -36.11 -0.04C-35.82 -0.21 -35.12 -0.72 -34 -1.56C-33.98 -1.57 -33.96 -1.53 -33.93 -1.43C-33.57 -0.23 -33.1 0.37 -32.52 0.37C-32.05 0.37 -31.13 -0.13 -29.78 -1.12C-29.6 -1.26 -29.51 -1.42 -29.51 -1.62C-29.51 -1.81 -29.54 -1.91 -29.61 -1.91C-29.69 -1.91 -29.82 -1.83 -30.01 -1.69C-30.21 -1.54 -30.45 -1.46 -30.74 -1.46C-31.03 -1.46 -31.28 -1.53 -31.5 -1.67ZM-37.57 -1.5C-37.91 -1.82 -38.07 -2.19 -38.07 -2.63C-38.07 -3.06 -38.02 -3.36 -37.91 -3.52C-37.79 -3.68 -37.57 -3.88 -37.25 -4.12L-34.11 -5.58C-34.09 -5.59 -34.06 -5.59 -34.01 -5.59C-33.97 -5.59 -33.95 -5.54 -33.95 -5.44L-33.95 -2.69C-33.95 -2.31 -34.25 -1.93 -34.87 -1.56C-35.48 -1.2 -36 -1.02 -36.43 -1.02C-36.86 -1.02 -37.24 -1.18 -37.57 -1.5Z M-23.27 -7.13L-15.42 -7.13C-15.23 -7.13 -15.13 -7.33 -15.13 -7.72C-15.13 -8.6 -15.55 -9.63 -16.38 -10.8C-17.21 -11.96 -18.28 -12.55 -19.58 -12.55C-21.41 -12.55 -22.84 -11.85 -23.88 -10.44C-24.93 -9.03 -25.45 -7.47 -25.45 -5.76C-25.45 -4.05 -24.97 -2.62 -24.01 -1.48C-23.56 -0.93 -23.02 -0.48 -22.39 -0.14C-21.76 0.2 -21.13 0.37 -20.52 0.37C-19.91 0.37 -19.35 0.28 -18.87 0.11C-17.45 -0.38 -16.22 -1.26 -15.17 -2.53C-15.22 -2.56 -15.26 -2.62 -15.31 -2.7C-15.36 -2.79 -15.42 -2.83 -15.47 -2.83L-15.54 -2.83C-15.56 -2.83 -15.59 -2.82 -15.6 -2.8C-16.74 -1.74 -17.93 -1.2 -19.16 -1.2C-20.39 -1.2 -21.42 -1.68 -22.25 -2.63C-23.08 -3.57 -23.5 -4.75 -23.5 -6.15C-23.5 -6.8 -23.42 -7.13 -23.27 -7.13ZM-23.12 -8.43L-23.12 -8.6C-22.96 -9.38 -22.61 -10.08 -22.06 -10.69C-21.5 -11.31 -20.88 -11.62 -20.21 -11.62C-19.51 -11.62 -18.87 -11.27 -18.29 -10.59C-17.71 -9.91 -17.42 -9.25 -17.42 -8.6C-17.42 -8.32 -17.54 -8.18 -17.77 -8.18L-22.87 -8.18C-23.04 -8.18 -23.12 -8.26 -23.12 -8.43Z M-3.52 -9.26L-3.52 -10.51C-3.52 -11.23 -3.55 -11.65 -3.63 -11.78C-3.7 -11.92 -3.94 -12.08 -4.36 -12.27C-4.78 -12.45 -5.43 -12.55 -6.31 -12.55C-7.18 -12.55 -8.04 -12.2 -8.87 -11.5C-9.7 -10.8 -10.11 -9.97 -10.11 -9C-10.11 -7.71 -9.2 -6.53 -7.38 -5.47C-6.91 -5.2 -6.47 -4.92 -6.07 -4.63C-5.67 -4.34 -5.33 -4.02 -5.06 -3.67C-4.79 -3.32 -4.66 -2.88 -4.66 -2.37C-4.66 -1.85 -4.83 -1.39 -5.17 -0.97C-5.51 -0.55 -5.97 -0.34 -6.54 -0.34C-7.82 -0.34 -8.77 -0.99 -9.38 -2.3C-9.47 -2.5 -9.53 -2.64 -9.55 -2.71C-9.57 -2.78 -9.6 -2.85 -9.64 -2.92C-9.67 -2.99 -9.72 -3.04 -9.77 -3.09C-9.82 -3.13 -9.88 -3.15 -9.95 -3.15C-10.02 -3.15 -10.07 -3.15 -10.1 -3.13C-10.14 -3.11 -10.15 -3.01 -10.15 -2.83C-10.15 -2.65 -10.11 -2.07 -10.03 -1.1C-9.95 -0.12 -9.88 0.37 -9.83 0.37L-9.6 0.37C-9.51 0.37 -9.39 0.29 -9.24 0.14C-9.09 -0.01 -8.98 -0.08 -8.91 -0.08C-8.85 -0.08 -8.59 -0.01 -8.14 0.14C-7.69 0.29 -7.2 0.37 -6.65 0.37C-5.62 0.37 -4.71 0.06 -3.94 -0.56C-3.16 -1.18 -2.77 -2.02 -2.77 -3.07C-2.77 -4.13 -3.23 -5.06 -4.13 -5.86C-4.52 -6.21 -5.16 -6.64 -6.02 -7.15C-6.89 -7.65 -7.51 -8.09 -7.89 -8.45C-8.27 -8.82 -8.46 -9.15 -8.46 -9.45C-8.46 -9.75 -8.41 -10.04 -8.32 -10.32C-8.04 -11.15 -7.48 -11.56 -6.65 -11.56C-6.01 -11.56 -5.48 -11.33 -5.05 -10.87C-4.63 -10.41 -4.3 -9.88 -4.09 -9.29C-4.01 -9.07 -3.89 -8.96 -3.74 -8.96C-3.59 -8.96 -3.52 -9.06 -3.52 -9.26Z M1.96 0L8 0C8.09 -0.02 8.13 -0.09 8.13 -0.23C8.13 -0.37 7.92 -0.46 7.5 -0.51C6.52 -0.66 6.04 -1.17 6.04 -2.06L6.04 -12.22C6.04 -12.44 5.96 -12.55 5.81 -12.55C5.78 -12.55 5.71 -12.52 5.6 -12.47L2.15 -10.84C2.02 -10.77 1.95 -10.68 1.95 -10.58C1.95 -10.48 1.96 -10.41 2 -10.38C2.03 -10.34 2.1 -10.31 2.23 -10.27C2.35 -10.24 2.51 -10.2 2.72 -10.16C2.93 -10.12 3.12 -10.07 3.3 -10C3.72 -9.86 3.92 -9.6 3.92 -9.22L3.92 -2.06C3.92 -1.17 3.44 -0.66 2.46 -0.51C2.04 -0.46 1.83 -0.35 1.83 -0.19C1.83 -0.08 1.87 -0.02 1.96 0ZM3.8 -16.71C4.08 -16.47 4.41 -16.35 4.78 -16.35C5.16 -16.35 5.47 -16.49 5.71 -16.77C5.96 -17.04 6.08 -17.35 6.08 -17.68C6.08 -18.01 5.95 -18.33 5.69 -18.61C5.43 -18.9 5.12 -19.05 4.74 -19.05C4.37 -19.05 4.05 -18.93 3.78 -18.68C3.5 -18.44 3.37 -18.11 3.37 -17.69C3.37 -17.27 3.51 -16.94 3.8 -16.71Z M21.62 -11.78C21.53 -11.78 21.28 -11.85 20.88 -11.99C20.49 -12.13 19.92 -12.2 19.19 -12.2C17.4 -12.2 15.86 -11.55 14.59 -10.25C14.01 -9.65 13.56 -8.96 13.23 -8.17C12.9 -7.38 12.73 -6.59 12.73 -5.79C12.73 -4.99 12.83 -4.23 13.02 -3.52C13.43 -1.99 14.21 -0.88 15.36 -0.18C16.81 0.7 18.58 0.51 20.68 -0.73C21.37 -1.14 21.74 -1.34 21.8 -1.34C21.85 -1.34 21.87 -1.3 21.87 -1.2L21.87 0.03C21.87 0.25 21.91 0.37 21.99 0.37C22.06 0.37 22.16 0.34 22.27 0.28L25.87 -1.2C26 -1.27 26.07 -1.35 26.07 -1.46C26.07 -1.56 26.04 -1.61 25.99 -1.61L25.2 -1.56C24.8 -1.56 24.5 -1.64 24.32 -1.81C24.14 -1.99 24.03 -2.27 23.98 -2.67L23.98 -21.94C23.98 -22.16 23.91 -22.27 23.75 -22.27C23.73 -22.27 23.66 -22.24 23.55 -22.19L20.1 -20.56C19.96 -20.49 19.9 -20.4 19.9 -20.3C19.9 -20.2 19.91 -20.13 19.94 -20.1C19.98 -20.06 20.05 -20.03 20.17 -19.99C20.3 -19.96 20.46 -19.92 20.67 -19.88C20.88 -19.84 21.07 -19.79 21.25 -19.72C21.67 -19.58 21.87 -19.32 21.87 -18.94L21.87 -11.95C21.84 -11.85 21.81 -11.79 21.78 -11.78C21.76 -11.78 21.71 -11.78 21.62 -11.78ZM15.92 -2.59C15.16 -3.62 14.78 -4.81 14.78 -6.18C14.78 -7.55 15.12 -8.73 15.81 -9.74C16.5 -10.75 17.45 -11.25 18.64 -11.25C19.84 -11.25 20.8 -10.75 21.52 -9.76C21.76 -9.53 21.87 -9.32 21.87 -9.15L21.87 -2.17C21.87 -2.01 21.56 -1.79 20.92 -1.5C20.29 -1.2 19.68 -1.06 19.08 -1.06C17.73 -1.06 16.67 -1.57 15.92 -2.59Z M30.06 0L36.1 0C36.19 -0.02 36.23 -0.09 36.23 -0.23C36.23 -0.37 36.02 -0.46 35.6 -0.51C34.62 -0.66 34.13 -1.17 34.13 -2.06L34.13 -12.22C34.13 -12.44 34.06 -12.55 33.9 -12.55C33.88 -12.55 33.81 -12.52 33.7 -12.47L30.25 -10.84C30.11 -10.77 30.05 -10.68 30.05 -10.58C30.05 -10.48 30.06 -10.41 30.09 -10.38C30.13 -10.34 30.2 -10.31 30.32 -10.27C30.45 -10.24 30.61 -10.2 30.82 -10.16C31.03 -10.12 31.22 -10.07 31.4 -10C31.82 -9.86 32.02 -9.6 32.02 -9.22L32.02 -2.06C32.02 -1.17 31.54 -0.66 30.56 -0.51C30.14 -0.46 29.92 -0.35 29.92 -0.19C29.92 -0.08 29.97 -0.02 30.06 0ZM31.89 -16.71C32.18 -16.47 32.51 -16.35 32.88 -16.35C33.26 -16.35 33.57 -16.49 33.81 -16.77C34.05 -17.04 34.18 -17.35 34.18 -17.68C34.18 -18.01 34.05 -18.33 33.79 -18.61C33.53 -18.9 33.22 -19.05 32.84 -19.05C32.47 -19.05 32.14 -18.93 31.87 -18.68C31.6 -18.44 31.47 -18.11 31.47 -17.69C31.47 -17.27 31.61 -16.94 31.89 -16.71Z M42.59 -10.66C41.33 -9.38 40.7 -7.86 40.7 -6.09C40.7 -4.31 41.31 -2.79 42.54 -1.53C43.77 -0.27 45.31 0.37 47.17 0.37C49.03 0.37 50.57 -0.26 51.81 -1.51C53.04 -2.76 53.65 -4.3 53.65 -6.12C53.65 -7.94 53 -9.47 51.7 -10.71C50.4 -11.96 48.87 -12.58 47.11 -12.58C45.35 -12.58 43.85 -11.94 42.59 -10.66ZM44.07 -2.6C43.32 -3.89 42.95 -5.26 42.95 -6.71C42.95 -8.16 43.26 -9.35 43.89 -10.3C44.51 -11.24 45.37 -11.71 46.46 -11.71C47.95 -11.71 49.14 -10.98 50.02 -9.53C50.9 -8.08 51.34 -6.66 51.34 -5.28C51.34 -3.9 51.02 -2.73 50.4 -1.79C49.77 -0.84 48.87 -0.37 47.68 -0.37C46.16 -0.37 44.95 -1.11 44.07 -2.6Z M68.33 -4.26C68.33 -3.35 68.29 -2.67 68.22 -2.22C68.22 -1.24 67.73 -0.68 66.77 -0.54C66.34 -0.48 66.13 -0.36 66.13 -0.19C66.13 -0.08 66.18 -0.02 66.27 0L72.79 0C72.88 -0.02 72.93 -0.08 72.93 -0.19C72.93 -0.3 72.89 -0.37 72.8 -0.41C72.71 -0.44 72.53 -0.48 72.26 -0.52C71.98 -0.56 71.7 -0.63 71.4 -0.73C70.69 -0.95 70.34 -1.41 70.34 -2.11L70.34 -2.9L70.46 -6.85C70.46 -10.65 69.42 -12.55 67.34 -12.55C66.82 -12.55 66.17 -12.37 65.39 -12.01C64.6 -11.65 63.82 -11.27 63.05 -10.88C62.71 -10.72 62.52 -10.64 62.46 -10.64C62.42 -10.64 62.38 -10.69 62.36 -10.78L62.36 -12.89C62.36 -13.1 62.28 -13.21 62.13 -13.21C62.1 -13.21 62.03 -13.19 61.92 -13.13L58.47 -11.51C58.33 -11.43 58.27 -11.35 58.27 -11.24C58.27 -11.14 58.28 -11.07 58.31 -11.04C58.35 -11.01 58.42 -10.97 58.54 -10.94C58.67 -10.9 58.83 -10.86 59.04 -10.82C59.25 -10.78 59.44 -10.73 59.62 -10.67C60.04 -10.52 60.24 -10.26 60.24 -9.88L60.24 -2.11C60.24 -1.2 59.76 -0.68 58.78 -0.54C58.36 -0.48 58.15 -0.36 58.15 -0.19C58.15 -0.08 58.19 -0.02 58.28 0L64.32 0C64.41 -0.02 64.45 -0.1 64.45 -0.24C64.45 -0.38 64.24 -0.48 63.82 -0.54C62.84 -0.68 62.36 -1.2 62.36 -2.11L62.36 -9.4C62.36 -9.51 62.48 -9.64 62.71 -9.77C64.39 -10.59 65.48 -10.99 66 -10.99C66.52 -10.99 66.94 -10.87 67.24 -10.63C67.55 -10.39 67.8 -10.04 68 -9.57C68.2 -9.1 68.3 -8.28 68.3 -7.12Z"></path></g></g></g></svg>