<svg xmlns="http://www.w3.org/2000/svg" id="SvgjsSvg38270" width="4096" height="1373.3705001984167" version="1.1" xmlns:xlink="http://www.w3.org/1999/xlink" xmlns:svgjs="http://svgjs.com/svgjs"><defs id="SvgjsDefs38271"></defs><g id="SvgjsG38272" transform="translate(328, 328) scale(34.4)" opacity="1"><defs id="SvgjsDefs11239"></defs><g id="SvgjsG11240" transform="scale(0.21645021645021645)" opacity="1"><g id="SvgjsG11241" class="1pwx7VKVC" transform="translate(-26.217357244259478, -4.764289770995716) scale(1.0587310602212765)" stroke="#d4af37" stroke-width="1.5237433962264149px" light-content="false" non-strokable="false" fill="#d4af37"><path d="M49.557 4.757l.877.48-24.657 45.006-.877-.48z"></path><path d="M50 95.5h-.296L24.763 50l20.944-38.209C49.704 4.5 49.704 4.5 50 4.5h.296L75.237 50 54.293 88.209C50.296 95.5 50.296 95.5 50 95.5zM25.904 50L50 93.96 74.097 50 50 6.04 25.904 50z"></path></g><g id="SvgjsG11242" class="text" transform="translate(24.957970247384427, 62.51308027950677) scale(1)" light-content="false" fill="#000000"><path d="M3.42 -27.28L3.19 -27.46C2.9 -27.46 2.53 -27.38 2.09 -27.22C1.64 -27.05 1.38 -26.85 1.29 -26.62L-7.59 -10.78C-9.6 -10.13 -11.48 -9.76 -13.22 -9.67C-13.55 -9.64 -13.71 -9.44 -13.71 -9.07C-13.71 -8.7 -13.62 -8.52 -13.44 -8.52C-11.85 -8.7 -10.11 -9.07 -8.25 -9.63L-14.15 0.93C-14.15 1.08 -14.03 1.15 -13.78 1.15C-13.52 1.15 -13.16 1.05 -12.69 0.84C-12.21 0.64 -11.89 0.34 -11.71 -0.04C-10.74 -1.7 -8.77 -5.18 -5.81 -10.47C-0.64 -12.45 3.94 -15.26 7.92 -18.9C11.9 -22.54 13.89 -25.7 13.89 -28.39C13.89 -31.5 11.08 -33.05 5.46 -33.05C2.09 -33.05 -1.83 -32.17 -6.3 -30.41C-10.77 -28.65 -14.6 -26.5 -17.81 -23.96C-21.02 -21.41 -22.63 -19.12 -22.63 -17.08C-22.63 -14.74 -21.49 -13.58 -19.21 -13.58C-17.55 -13.58 -15.5 -14.16 -13.04 -15.33C-10.59 -16.5 -8.49 -17.78 -6.74 -19.19C-5 -20.59 -4.13 -21.63 -4.13 -22.32C-4.13 -22.52 -4.22 -22.63 -4.41 -22.63C-4.61 -22.63 -4.82 -22.43 -5.06 -22.05C-6.95 -20.01 -9.09 -18.37 -11.47 -17.15C-13.85 -15.92 -15.91 -15.31 -17.66 -15.31C-19.73 -15.31 -20.76 -16.13 -20.76 -17.79C-20.76 -19.74 -19.37 -21.81 -16.59 -24C-13.81 -26.19 -10.48 -27.99 -6.61 -29.41C-2.74 -30.83 0.74 -31.54 3.82 -31.54C9.08 -31.54 11.71 -30.14 11.71 -27.33C11.71 -24.99 10 -22.25 6.57 -19.1C3.14 -15.95 -0.77 -13.47 -5.15 -11.67C0.15 -21.1 2.9 -26.05 3.11 -26.51C3.31 -26.97 3.42 -27.22 3.42 -27.28Z M16.41 -20.85C18.01 -20.85 19.68 -21.66 21.43 -23.29C23.17 -24.92 24.07 -26.93 24.13 -29.32C25.44 -29.65 26.75 -29.84 28.08 -29.9C28.35 -29.99 28.48 -30.18 28.48 -30.48C28.48 -30.77 28.46 -30.94 28.42 -30.99C28.37 -31.03 28.05 -31.05 27.46 -31.05C26.87 -31.05 25.75 -30.79 24.09 -30.26C23.79 -32.77 22.15 -34.03 19.17 -34.03C17.27 -34.03 15.27 -33.51 13.15 -32.47C11.04 -31.44 9.21 -29.95 7.67 -28.02C6.14 -26.08 5.37 -24.13 5.37 -22.18C5.37 -20.23 5.83 -17.9 6.77 -15.19C7.7 -12.49 8.16 -10.5 8.16 -9.23C8.16 -8.72 8.1 -8.06 7.99 -7.23C5.23 -6.76 2.43 -5.95 -0.42 -4.81C-3.28 -3.67 -5.74 -2.26 -7.81 -0.58C-9.88 1.11 -10.91 2.78 -10.91 4.44C-10.91 5.62 -9.91 6.21 -7.9 6.21C-6.6 6.21 -5.09 5.93 -3.39 5.37C-1.69 4.81 0 4.01 1.69 2.99C3.37 1.97 4.9 0.64 6.28 -1C7.65 -2.64 8.59 -4.41 9.09 -6.3C9.89 -6.42 10.72 -6.48 11.58 -6.48C13.92 -6.48 15.08 -5.97 15.08 -4.97C15.08 -4.47 14.64 -3.96 13.75 -3.46C13.63 -3.37 13.58 -3.27 13.58 -3.15C13.58 -3.03 13.69 -2.9 13.93 -2.75C14.7 -3.22 15.25 -3.64 15.57 -3.99C15.9 -4.35 16.06 -4.79 16.06 -5.32C16.06 -6.83 14.63 -7.59 11.76 -7.59C11.25 -7.59 10.44 -7.53 9.32 -7.41C9.43 -8.3 9.49 -8.98 9.49 -9.45C9.49 -11.34 9.05 -13.72 8.16 -16.59C7.28 -19.46 6.83 -21.19 6.83 -21.78C6.83 -23.5 7.21 -25.07 7.96 -26.51C8.72 -27.94 9.69 -29.1 10.89 -29.97C12.09 -30.84 13.36 -31.51 14.71 -31.99C16.05 -32.46 17.35 -32.7 18.61 -32.7C19.87 -32.7 20.92 -32.47 21.78 -32.01C22.64 -31.55 23.17 -30.89 23.38 -30.03C21.01 -29.18 18.97 -28.07 17.26 -26.71C15.54 -25.35 14.68 -23.9 14.68 -22.36C14.68 -21.35 15.26 -20.85 16.41 -20.85ZM-9.18 3.33C-9.18 1.97 -8.25 0.61 -6.39 -0.73C-4.53 -2.08 -2.33 -3.21 0.2 -4.13C2.73 -5.04 5.25 -5.71 7.76 -6.12C7.32 -4.38 6.51 -2.79 5.35 -1.35C4.18 0.08 2.87 1.21 1.42 2.04C-1.54 3.76 -4.21 4.61 -6.61 4.61C-8.33 4.61 -9.18 4.18 -9.18 3.33ZM16.1 -22.63C16.1 -23.99 16.81 -25.24 18.23 -26.4C19.65 -27.55 21.4 -28.45 23.47 -29.1C23.44 -27.27 22.63 -25.59 21.05 -24.07C19.47 -22.54 18.12 -21.78 16.99 -21.78C16.4 -21.78 16.1 -22.06 16.1 -22.63Z"></path></g><g id="SvgjsG11243" class="text" transform="translate(376.7268965492606, 68.3609493147485) scale(1)" light-content="false" fill="#000000"><path d="M-68.75 -28.22L-69.88 -28.08C-70.36 -28.2 -71.22 -28.43 -72.45 -28.78C-73.68 -29.13 -74.81 -29.31 -75.83 -29.31C-77.81 -29.31 -79.56 -28.7 -81.09 -27.47C-82.62 -26.25 -83.38 -24.68 -83.38 -22.76C-83.38 -20.84 -82.69 -19.1 -81.3 -17.54C-80.41 -16.53 -79.22 -15.52 -77.73 -14.51C-76.24 -13.5 -75.09 -12.72 -74.3 -12.15C-71.5 -10.13 -70.1 -7.95 -70.1 -5.61C-70.1 -4.14 -70.63 -2.95 -71.7 -2.04C-72.77 -1.12 -74.06 -0.67 -75.57 -0.67C-78.85 -0.67 -81.2 -2.18 -82.61 -5.21C-82.92 -6.28 -83.27 -6.82 -83.64 -6.82C-83.79 -6.82 -83.88 -6.79 -83.92 -6.71C-83.95 -6.64 -83.97 -6.5 -83.97 -6.29C-83.97 -6.08 -83.77 -4.31 -83.38 -0.97C-83.34 -0.69 -83.23 -0.54 -83.06 -0.54L-82.07 -0.75C-82.03 -0.76 -81.93 -0.77 -81.78 -0.77C-81.62 -0.77 -81.38 -0.7 -81.04 -0.57C-80.7 -0.43 -80.09 -0.21 -79.21 0.09C-78.33 0.39 -77.14 0.54 -75.65 0.54C-73.32 0.54 -71.28 -0.14 -69.52 -1.5C-67.77 -2.87 -66.89 -4.7 -66.89 -6.98C-67.01 -9.03 -67.78 -10.87 -69.19 -12.51C-70.09 -13.58 -71.61 -14.86 -73.75 -16.35C-74.56 -16.93 -75.35 -17.5 -76.13 -18.07C-76.91 -18.63 -77.61 -19.22 -78.21 -19.84C-78.82 -20.46 -79.31 -21.13 -79.68 -21.86C-80.05 -22.59 -80.23 -23.45 -80.23 -24.43C-80.23 -25.42 -79.73 -26.28 -78.74 -27.01C-77.74 -27.73 -76.69 -28.1 -75.57 -28.1C-73.71 -28.1 -72.04 -27.38 -70.56 -25.96C-69.96 -25.35 -69.51 -24.74 -69.23 -24.12C-69.15 -23.96 -69.07 -23.8 -69 -23.64C-68.92 -23.48 -68.86 -23.33 -68.81 -23.2C-68.75 -23.07 -68.7 -22.98 -68.65 -22.93C-68.59 -22.88 -68.46 -22.85 -68.25 -22.85C-68.04 -22.85 -67.94 -22.89 -67.94 -22.96C-67.94 -23.03 -67.97 -23.21 -68.02 -23.48L-68.54 -27.77C-68.54 -28.07 -68.61 -28.22 -68.75 -28.22Z M-56.28 -10.64L-44.57 -10.64C-44.29 -10.64 -44.14 -10.93 -44.14 -11.51C-44.14 -12.82 -44.76 -14.35 -46 -16.1C-47.24 -17.84 -48.83 -18.71 -50.79 -18.71C-53.5 -18.71 -55.64 -17.66 -57.19 -15.56C-58.75 -13.46 -59.53 -11.14 -59.53 -8.59C-59.53 -6.04 -58.81 -3.91 -57.39 -2.2C-56.71 -1.38 -55.91 -0.72 -54.96 -0.21C-54.02 0.29 -53.09 0.54 -52.18 0.54C-51.26 0.54 -50.44 0.42 -49.72 0.16C-47.6 -0.57 -45.77 -1.88 -44.21 -3.77C-44.27 -3.81 -44.34 -3.9 -44.42 -4.03C-44.49 -4.15 -44.57 -4.22 -44.65 -4.22L-44.75 -4.22C-44.79 -4.22 -44.82 -4.21 -44.85 -4.18C-46.55 -2.59 -48.31 -1.8 -50.15 -1.8C-51.99 -1.8 -53.52 -2.5 -54.76 -3.92C-56 -5.33 -56.62 -7.08 -56.62 -9.16C-56.62 -10.15 -56.5 -10.64 -56.28 -10.64ZM-56.05 -12.58L-56.05 -12.82C-55.83 -13.99 -55.3 -15.03 -54.47 -15.95C-53.64 -16.86 -52.72 -17.32 -51.71 -17.32C-50.68 -17.32 -49.73 -16.81 -48.86 -15.79C-47.99 -14.78 -47.56 -13.79 -47.56 -12.82C-47.56 -12.4 -47.73 -12.19 -48.08 -12.19L-55.69 -12.19C-55.93 -12.19 -56.05 -12.32 -56.05 -12.58Z M-20.77 -16.29C-20.77 -16.41 -20.81 -16.54 -20.88 -16.67C-21.13 -17.26 -21.58 -17.76 -22.21 -18.15C-22.84 -18.54 -24.13 -18.73 -26.06 -18.73C-29.2 -18.73 -31.61 -17.96 -33.31 -16.41C-35.23 -14.65 -36.2 -11.76 -36.22 -7.75C-36.22 -5.58 -35.49 -3.66 -34.05 -1.98C-32.6 -0.3 -30.75 0.54 -28.49 0.54C-25.36 0.54 -22.77 -0.89 -20.71 -3.75C-20.63 -3.84 -20.59 -3.95 -20.59 -4.11C-20.59 -4.26 -20.64 -4.38 -20.73 -4.46C-20.83 -4.54 -20.92 -4.58 -21 -4.58C-21.08 -4.58 -21.32 -4.36 -21.72 -3.92C-23.04 -2.44 -24.53 -1.7 -26.18 -1.7C-28.4 -1.7 -30.05 -2.45 -31.13 -3.95C-32.21 -5.45 -32.74 -7.38 -32.74 -9.75C-32.74 -10.85 -32.54 -11.96 -32.12 -13.08C-31.36 -15.1 -30.29 -16.42 -28.9 -17.04C-27.51 -17.66 -26.33 -17.57 -25.36 -16.77C-25.13 -16.59 -24.91 -16.38 -24.7 -16.16C-24.49 -15.94 -24.2 -15.67 -23.81 -15.35C-23.43 -15.03 -22.96 -14.88 -22.41 -14.88C-21.32 -14.88 -20.77 -15.35 -20.77 -16.29Z M0.17 -1.78L0.17 0.04C0.17 0.38 0.23 0.54 0.35 0.54C0.46 0.54 0.6 0.5 0.76 0.42L6.13 -1.8C6.33 -1.89 6.43 -2.02 6.43 -2.17C6.43 -2.32 6.39 -2.4 6.31 -2.4L5.14 -2.32C4.53 -2.32 4.1 -2.45 3.83 -2.7C3.56 -2.96 3.39 -3.38 3.32 -3.98L3.32 -18.31C3.32 -18.58 3.25 -18.71 3.09 -18.71C2.94 -18.71 2.78 -18.68 2.62 -18.63L-2.01 -17.3C-2.22 -17.24 -2.33 -17.09 -2.33 -16.84C-2.33 -16.6 -2.1 -16.46 -1.65 -16.43C-1.2 -16.4 -0.77 -16.22 -0.35 -15.87C-0.04 -15.58 0.13 -15.25 0.17 -14.86L0.17 -3.92C-0.04 -3.61 -0.31 -3.32 -0.63 -3.07C-1.67 -2.27 -2.84 -1.88 -4.14 -1.88C-5.43 -1.88 -6.5 -2.13 -7.34 -2.64C-8.17 -3.16 -8.59 -3.88 -8.59 -4.82L-8.59 -18.37C-8.59 -18.6 -8.66 -18.71 -8.82 -18.71C-8.97 -18.71 -9.13 -18.68 -9.29 -18.63L-13.92 -17.3C-14.13 -17.24 -14.24 -17.09 -14.24 -16.84C-14.24 -16.6 -14.01 -16.46 -13.56 -16.43C-13.11 -16.4 -12.68 -16.22 -12.26 -15.87C-11.95 -15.58 -11.78 -15.25 -11.74 -14.86L-11.74 -2.54C-11.74 -1.95 -11.6 -1.45 -11.33 -1.05C-10.59 0.03 -9.38 0.57 -7.7 0.57C-6.02 0.57 -3.92 -0.06 -1.4 -1.31C-0.63 -1.7 -0.2 -1.93 -0.09 -2.01C0.02 -2.08 0.11 -2.01 0.17 -1.78Z M25.46 -14.47C25.77 -14.47 26.08 -14.79 26.39 -15.42C26.7 -16.05 26.85 -16.52 26.85 -16.83C26.85 -17.09 26.37 -17.41 25.39 -17.78C24.42 -18.16 23.69 -18.35 23.22 -18.35C22.39 -18.35 21.33 -17.45 20.05 -15.66C19.61 -15.03 19.33 -14.71 19.22 -14.71C19.14 -14.71 19.1 -14.8 19.1 -14.96L19.1 -18.23C19.1 -18.55 18.99 -18.71 18.76 -18.71C18.72 -18.71 18.62 -18.67 18.46 -18.59L13.31 -16.17C13.11 -16.06 13.01 -15.93 13.01 -15.77C13.01 -15.62 13.03 -15.52 13.08 -15.47C13.13 -15.42 13.24 -15.37 13.42 -15.32C13.6 -15.27 13.85 -15.21 14.16 -15.15C14.47 -15.09 14.76 -15.01 15.03 -14.92C15.64 -14.7 15.95 -14.31 15.95 -13.75L15.95 -3.07C15.95 -1.75 15.23 -0.98 13.77 -0.77C13.14 -0.69 12.83 -0.52 12.83 -0.28C12.83 -0.12 12.89 -0.03 13.03 0L23.14 0C23.27 -0.03 23.34 -0.12 23.34 -0.27C23.34 -0.43 23.28 -0.53 23.15 -0.59C23.02 -0.64 22.74 -0.7 22.29 -0.76C21.85 -0.82 21.37 -0.92 20.86 -1.05C19.69 -1.39 19.1 -2.06 19.1 -3.07L19.1 -12.19C19.1 -12.82 19.45 -13.53 20.14 -14.32C20.84 -15.11 21.5 -15.5 22.13 -15.5C22.76 -15.5 23.64 -15.25 24.76 -14.74C25.06 -14.59 25.3 -14.5 25.46 -14.47Z M32.4 0L41.4 0C41.54 -0.03 41.61 -0.14 41.61 -0.34C41.61 -0.54 41.29 -0.69 40.66 -0.77C39.2 -0.98 38.48 -1.75 38.48 -3.07L38.48 -18.23C38.48 -18.55 38.36 -18.71 38.13 -18.71C38.09 -18.71 37.99 -18.67 37.83 -18.59L32.68 -16.17C32.48 -16.06 32.38 -15.93 32.38 -15.77C32.38 -15.62 32.4 -15.52 32.45 -15.47C32.5 -15.42 32.61 -15.37 32.79 -15.32C32.98 -15.27 33.22 -15.21 33.53 -15.15C33.84 -15.09 34.13 -15.01 34.4 -14.92C35.02 -14.7 35.33 -14.31 35.33 -13.75L35.33 -3.07C35.33 -1.75 34.6 -0.98 33.15 -0.77C32.52 -0.69 32.2 -0.52 32.2 -0.28C32.2 -0.12 32.27 -0.03 32.4 0ZM35.14 -24.91C35.56 -24.56 36.05 -24.38 36.61 -24.38C37.17 -24.38 37.63 -24.59 37.99 -25C38.36 -25.41 38.54 -25.86 38.54 -26.36C38.54 -26.86 38.35 -27.32 37.96 -27.75C37.58 -28.19 37.11 -28.4 36.55 -28.4C35.99 -28.4 35.51 -28.22 35.11 -27.86C34.7 -27.49 34.5 -27 34.5 -26.37C34.5 -25.75 34.71 -25.26 35.14 -24.91Z M53.07 -15.52L59.14 -15.52C59.25 -15.52 59.3 -15.56 59.3 -15.64C59.3 -17.31 59.01 -18.15 58.42 -18.15L53.27 -18.15C53.05 -18.16 52.95 -18.29 52.95 -18.53C53.4 -20.27 53.63 -21.15 53.63 -21.17C53.63 -21.36 53.52 -21.46 53.29 -21.46C53.06 -21.46 52.73 -21.2 52.29 -20.69C51.85 -20.18 51.52 -19.77 51.29 -19.48C51.06 -19.18 50.88 -18.96 50.75 -18.81C49.49 -17.63 48.51 -16.81 47.8 -16.35C47.7 -16.28 47.67 -16.13 47.69 -15.89C47.71 -15.64 47.91 -15.52 48.28 -15.52L49.8 -15.52L49.8 -4.28C49.8 -2.96 50.18 -1.83 50.94 -0.88C51.7 0.07 52.83 0.54 54.33 0.54C55.83 0.54 57.39 -0.5 59 -2.58C59.07 -2.68 59.1 -2.89 59.1 -3.21C59.1 -3.3 59.01 -3.35 58.82 -3.35C58.63 -3.35 58.42 -3.26 58.17 -3.08C57.93 -2.9 57.66 -2.7 57.36 -2.48C57.05 -2.27 56.7 -2.07 56.29 -1.89C55.88 -1.71 55.39 -1.61 54.84 -1.61C54.29 -1.61 53.84 -1.84 53.48 -2.3C53.12 -2.76 52.95 -3.39 52.95 -4.2L52.95 -15.34C52.95 -15.46 52.99 -15.52 53.07 -15.52Z M85.06 -18.17L77.41 -18.17C77.11 -18.17 76.96 -18.05 76.96 -17.82C76.96 -17.43 77.29 -17.24 77.96 -17.24C78.63 -17.24 79.15 -17.04 79.54 -16.63C79.92 -16.23 80.11 -15.85 80.11 -15.48C80.11 -15.12 80 -14.57 79.78 -13.85C79.56 -13.12 78.53 -10.44 76.7 -5.79C76.39 -4.99 76.22 -4.55 76.19 -4.48C75.93 -3.75 75.66 -3.73 75.39 -4.42L70.16 -15.62L69.98 -16.11C69.98 -16.92 70.5 -17.32 71.53 -17.32C72.18 -17.32 72.6 -17.36 72.78 -17.43C72.97 -17.5 73.07 -17.65 73.07 -17.85C73.07 -18.06 73.01 -18.17 72.9 -18.17L63.92 -18.17C63.6 -18.17 63.44 -18.03 63.44 -17.74C63.44 -17.46 63.72 -17.29 64.29 -17.24C64.42 -17.22 64.53 -17.2 64.63 -17.18C65.84 -16.79 66.69 -15.91 67.19 -14.55L73.85 -0.65C74.12 -0.31 74.26 -0.03 74.26 0.2C74.26 0.43 73.13 3.07 70.87 8.13C70.8 8.31 70.58 8.58 70.2 8.93C69.82 9.29 69.48 9.52 69.18 9.62C68.88 9.72 68.59 9.83 68.3 9.95C68.02 10.07 67.77 10.23 67.57 10.43C67.36 10.62 67.25 10.93 67.25 11.35C67.25 11.78 67.39 12.14 67.68 12.45C67.96 12.76 68.34 12.92 68.81 12.92C69.88 12.92 70.59 12.56 70.93 11.85L72.24 9.06L81.73 -14.45C82.08 -15.29 82.41 -15.94 82.71 -16.41C83.02 -16.88 83.37 -17.15 83.76 -17.23C84.15 -17.3 84.44 -17.35 84.62 -17.38C84.8 -17.41 84.95 -17.44 85.05 -17.47C85.15 -17.5 85.21 -17.54 85.24 -17.59C85.26 -17.64 85.28 -17.74 85.28 -17.88C85.28 -18.03 85.2 -18.13 85.06 -18.17Z"></path></g><g id="SvgjsG11244" class="text" transform="translate(173.1357636462252, 69.36602382974719) scale(1)" light-content="false" fill="#d4af37"><path d="M-107.12 0L-95.05 0C-94.95 0 -94.89 -0.05 -94.89 -0.16L-94.89 -0.65C-94.89 -0.75 -94.96 -0.81 -95.09 -0.81C-95.23 -0.81 -95.49 -0.84 -95.88 -0.9C-96.27 -0.96 -96.55 -1 -96.73 -1.03C-98.03 -1.23 -98.89 -1.51 -99.29 -1.86C-99.7 -2.21 -99.9 -2.75 -99.9 -3.49L-99.9 -11.79C-99.9 -11.98 -99.8 -12.07 -99.6 -12.07L-99.43 -12.07L-93.38 -11.83C-92.54 -11.84 -91.7 -12.09 -90.84 -12.59C-89.97 -13.08 -89.2 -13.72 -88.51 -14.51C-86.94 -16.3 -86.15 -18.3 -86.15 -20.5C-86.15 -22.7 -86.95 -24.59 -88.55 -26.16C-90.16 -27.73 -92.16 -28.6 -94.57 -28.76L-96.61 -28.76L-107.93 -28.46L-108.07 -28.46C-108.25 -28.42 -108.34 -28.31 -108.34 -28.12C-108.34 -27.79 -108.19 -27.63 -107.91 -27.63L-107 -27.63C-105.81 -27.63 -104.98 -27.46 -104.52 -27.12C-104.06 -26.78 -103.83 -25.98 -103.83 -24.75L-103.83 -3.43C-103.83 -2.18 -104.52 -1.4 -105.89 -1.09C-106.03 -1.06 -106.23 -1.01 -106.49 -0.93C-106.75 -0.85 -106.95 -0.81 -107.08 -0.81C-107.22 -0.81 -107.29 -0.75 -107.29 -0.65L-107.29 -0.4C-107.29 -0.13 -107.23 0 -107.12 0ZM-98.78 -27.72C-98.6 -27.73 -98.42 -27.74 -98.26 -27.74L-97.78 -27.76C-97.62 -27.77 -97.44 -27.77 -97.25 -27.77C-95.11 -27.77 -93.4 -27.17 -92.12 -25.96C-90.83 -24.75 -90.19 -23.04 -90.19 -20.84C-90.19 -18.64 -90.85 -16.81 -92.18 -15.36C-93.5 -13.91 -95.25 -13.18 -97.42 -13.18L-99.47 -13.3C-99.69 -13.32 -99.82 -13.46 -99.86 -13.75L-99.9 -14.35L-99.9 -27.37C-99.9 -27.59 -99.76 -27.7 -99.47 -27.7C-99.19 -27.71 -98.96 -27.72 -98.78 -27.72Z M-66.88 -14.47C-66.57 -14.47 -66.26 -14.79 -65.95 -15.42C-65.64 -16.05 -65.49 -16.52 -65.49 -16.83C-65.49 -17.09 -65.97 -17.41 -66.95 -17.78C-67.93 -18.16 -68.65 -18.35 -69.12 -18.35C-69.95 -18.35 -71.01 -17.45 -72.29 -15.66C-72.73 -15.03 -73.01 -14.71 -73.12 -14.71C-73.2 -14.71 -73.24 -14.8 -73.24 -14.96L-73.24 -18.23C-73.24 -18.55 -73.35 -18.71 -73.58 -18.71C-73.62 -18.71 -73.72 -18.67 -73.88 -18.59L-79.03 -16.17C-79.23 -16.06 -79.33 -15.93 -79.33 -15.77C-79.33 -15.62 -79.31 -15.52 -79.26 -15.47C-79.22 -15.42 -79.1 -15.37 -78.92 -15.32C-78.74 -15.27 -78.49 -15.21 -78.18 -15.15C-77.87 -15.09 -77.58 -15.01 -77.32 -14.92C-76.7 -14.7 -76.39 -14.31 -76.39 -13.75L-76.39 -3.07C-76.39 -1.75 -77.11 -0.98 -78.57 -0.77C-79.2 -0.69 -79.52 -0.52 -79.52 -0.28C-79.52 -0.12 -79.45 -0.03 -79.31 0L-69.2 0C-69.07 -0.03 -69 -0.12 -69 -0.27C-69 -0.43 -69.06 -0.53 -69.19 -0.59C-69.32 -0.64 -69.6 -0.7 -70.05 -0.76C-70.49 -0.82 -70.97 -0.92 -71.48 -1.05C-72.65 -1.39 -73.24 -2.06 -73.24 -3.07L-73.24 -12.19C-73.24 -12.82 -72.89 -13.53 -72.2 -14.32C-71.51 -15.11 -70.84 -15.5 -70.21 -15.5C-69.58 -15.5 -68.7 -15.25 -67.59 -14.74C-67.28 -14.59 -67.04 -14.5 -66.88 -14.47Z M-46.97 -2.49C-47.3 -2.7 -47.47 -2.98 -47.47 -3.33L-47.47 -13.97C-47.47 -15.26 -48 -16.37 -49.06 -17.31C-50.12 -18.24 -51.5 -18.71 -53.2 -18.71C-54.89 -18.71 -56.4 -18.1 -57.72 -16.87C-58.28 -16.35 -58.72 -15.77 -59.03 -15.14C-59.34 -14.51 -59.5 -13.93 -59.5 -13.41C-59.5 -12.89 -59.39 -12.64 -59.17 -12.64C-59.04 -12.66 -58.53 -12.86 -57.64 -13.24C-56.75 -13.62 -56.27 -13.89 -56.19 -14.05L-56.29 -14.84C-56.29 -15.63 -56.01 -16.24 -55.45 -16.67C-54.89 -17.1 -54.34 -17.32 -53.79 -17.32C-53.25 -17.32 -52.78 -17.22 -52.39 -17.02C-51.21 -16.4 -50.61 -15.33 -50.61 -13.81L-50.61 -9.93C-50.61 -9.85 -50.63 -9.76 -50.66 -9.67C-50.7 -9.57 -51.03 -9.36 -51.66 -9.02C-52.3 -8.69 -53.02 -8.41 -53.82 -8.2C-56.21 -7.58 -57.82 -6.93 -58.67 -6.26C-59.52 -5.58 -59.94 -4.68 -59.94 -3.53C-59.94 -2.95 -59.82 -2.41 -59.58 -1.9C-59.08 -0.9 -58.27 -0.19 -57.16 0.24C-56.05 0.67 -54.95 0.57 -53.84 -0.06C-53.41 -0.32 -52.36 -1.07 -50.69 -2.32C-50.67 -2.33 -50.63 -2.27 -50.59 -2.14C-50.06 -0.35 -49.36 0.54 -48.49 0.54C-47.78 0.54 -46.42 -0.2 -44.4 -1.68C-44.13 -1.88 -43.99 -2.12 -43.99 -2.41C-43.99 -2.7 -44.05 -2.85 -44.15 -2.85C-44.26 -2.85 -44.46 -2.74 -44.75 -2.51C-45.04 -2.29 -45.4 -2.18 -45.83 -2.18C-46.26 -2.18 -46.64 -2.28 -46.97 -2.49ZM-56.02 -2.23C-56.52 -2.71 -56.77 -3.27 -56.77 -3.92C-56.77 -4.56 -56.69 -5.01 -56.52 -5.25C-56.35 -5.49 -56.02 -5.79 -55.54 -6.14L-50.86 -8.32C-50.83 -8.33 -50.78 -8.34 -50.72 -8.34C-50.65 -8.34 -50.61 -8.26 -50.61 -8.11L-50.61 -4.02C-50.61 -3.44 -51.07 -2.88 -51.99 -2.33C-52.9 -1.79 -53.68 -1.51 -54.32 -1.51C-54.96 -1.51 -55.53 -1.75 -56.02 -2.23Z M-34.69 -10.64L-22.98 -10.64C-22.7 -10.64 -22.56 -10.93 -22.56 -11.51C-22.56 -12.82 -23.18 -14.35 -24.42 -16.1C-25.66 -17.84 -27.25 -18.71 -29.2 -18.71C-31.92 -18.71 -34.06 -17.66 -35.61 -15.56C-37.16 -13.46 -37.94 -11.14 -37.94 -8.59C-37.94 -6.04 -37.23 -3.91 -35.8 -2.2C-35.13 -1.38 -34.32 -0.72 -33.38 -0.21C-32.44 0.29 -31.51 0.54 -30.59 0.54C-29.68 0.54 -28.86 0.42 -28.13 0.16C-26.02 -0.57 -24.18 -1.88 -22.62 -3.77C-22.69 -3.81 -22.76 -3.9 -22.83 -4.03C-22.91 -4.15 -22.98 -4.22 -23.07 -4.22L-23.17 -4.22C-23.21 -4.22 -23.24 -4.21 -23.27 -4.18C-24.96 -2.59 -26.73 -1.8 -28.57 -1.8C-30.4 -1.8 -31.94 -2.5 -33.18 -3.92C-34.42 -5.33 -35.04 -7.08 -35.04 -9.16C-35.04 -10.15 -34.92 -10.64 -34.69 -10.64ZM-34.47 -12.58L-34.47 -12.82C-34.24 -13.99 -33.71 -15.03 -32.89 -15.95C-32.06 -16.86 -31.14 -17.32 -30.13 -17.32C-29.09 -17.32 -28.14 -16.81 -27.27 -15.79C-26.41 -14.78 -25.97 -13.79 -25.97 -12.82C-25.97 -12.4 -26.15 -12.19 -26.5 -12.19L-34.11 -12.19C-34.35 -12.19 -34.47 -12.32 -34.47 -12.58Z M-5.25 -13.81L-5.25 -15.66C-5.25 -16.74 -5.3 -17.38 -5.41 -17.57C-5.52 -17.77 -5.88 -18.01 -6.51 -18.29C-7.13 -18.57 -8.1 -18.71 -9.4 -18.71C-10.71 -18.71 -11.98 -18.19 -13.22 -17.15C-14.46 -16.1 -15.08 -14.86 -15.08 -13.42C-15.08 -11.5 -13.72 -9.74 -11 -8.15C-10.3 -7.75 -9.65 -7.33 -9.05 -6.9C-8.45 -6.47 -7.95 -5.99 -7.55 -5.47C-7.14 -4.95 -6.94 -4.3 -6.94 -3.53C-6.94 -2.77 -7.2 -2.07 -7.71 -1.44C-8.22 -0.82 -8.9 -0.5 -9.75 -0.5C-11.66 -0.5 -13.07 -1.48 -13.99 -3.43C-14.12 -3.73 -14.2 -3.93 -14.24 -4.04C-14.27 -4.14 -14.32 -4.25 -14.37 -4.35C-14.42 -4.45 -14.49 -4.53 -14.56 -4.6C-14.64 -4.67 -14.73 -4.7 -14.83 -4.7C-14.94 -4.7 -15.02 -4.69 -15.07 -4.66C-15.11 -4.64 -15.14 -4.49 -15.14 -4.22C-15.14 -3.95 -15.08 -3.09 -14.96 -1.63C-14.83 -0.18 -14.73 0.54 -14.65 0.54L-14.31 0.54C-14.17 0.54 -14 0.43 -13.77 0.21C-13.55 -0.01 -13.39 -0.12 -13.29 -0.12C-13.19 -0.12 -12.81 -0.01 -12.14 0.21C-11.47 0.43 -10.73 0.54 -9.91 0.54C-8.37 0.54 -7.03 0.08 -5.87 -0.84C-4.71 -1.76 -4.14 -3.01 -4.14 -4.58C-4.14 -6.16 -4.81 -7.54 -6.15 -8.74C-6.75 -9.26 -7.69 -9.9 -8.98 -10.66C-10.27 -11.41 -11.2 -12.06 -11.77 -12.61C-12.33 -13.15 -12.61 -13.65 -12.61 -14.09C-12.61 -14.53 -12.55 -14.96 -12.41 -15.38C-11.98 -16.62 -11.15 -17.24 -9.91 -17.24C-8.97 -17.24 -8.18 -16.89 -7.54 -16.21C-6.9 -15.52 -6.42 -14.74 -6.09 -13.85C-5.97 -13.52 -5.8 -13.36 -5.58 -13.36C-5.36 -13.36 -5.25 -13.51 -5.25 -13.81Z M2.92 0L11.93 0C12.06 -0.03 12.13 -0.14 12.13 -0.34C12.13 -0.54 11.81 -0.69 11.18 -0.77C9.73 -0.98 9 -1.75 9 -3.07L9 -18.23C9 -18.55 8.89 -18.71 8.66 -18.71C8.62 -18.71 8.52 -18.67 8.35 -18.59L3.21 -16.17C3.01 -16.06 2.9 -15.93 2.9 -15.77C2.9 -15.62 2.93 -15.52 2.98 -15.47C3.02 -15.42 3.14 -15.37 3.32 -15.32C3.5 -15.27 3.75 -15.21 4.06 -15.15C4.36 -15.09 4.65 -15.01 4.92 -14.92C5.54 -14.7 5.85 -14.31 5.85 -13.75L5.85 -3.07C5.85 -1.75 5.13 -0.98 3.67 -0.77C3.04 -0.69 2.72 -0.52 2.72 -0.28C2.72 -0.12 2.79 -0.03 2.92 0ZM5.66 -24.91C6.08 -24.56 6.57 -24.38 7.13 -24.38C7.69 -24.38 8.15 -24.59 8.52 -25C8.88 -25.41 9.06 -25.86 9.06 -26.36C9.06 -26.86 8.87 -27.32 8.49 -27.75C8.1 -28.19 7.63 -28.4 7.07 -28.4C6.51 -28.4 6.03 -28.22 5.63 -27.86C5.23 -27.49 5.02 -27 5.02 -26.37C5.02 -25.75 5.24 -25.26 5.66 -24.91Z M32.23 -17.56C32.1 -17.56 31.73 -17.67 31.14 -17.87C30.55 -18.08 29.71 -18.19 28.62 -18.19C25.94 -18.19 23.65 -17.22 21.75 -15.28C20.89 -14.39 20.22 -13.36 19.72 -12.18C19.23 -11 18.99 -9.82 18.99 -8.63C18.99 -7.44 19.13 -6.31 19.41 -5.25C20.02 -2.97 21.18 -1.31 22.9 -0.26C25.06 1.04 27.7 0.77 30.84 -1.09C31.86 -1.7 32.42 -2 32.51 -2C32.58 -2 32.61 -1.93 32.61 -1.8L32.61 0.04C32.61 0.38 32.67 0.54 32.78 0.54C32.9 0.54 33.04 0.5 33.2 0.42L38.57 -1.8C38.77 -1.89 38.87 -2.02 38.87 -2.17C38.87 -2.32 38.83 -2.4 38.75 -2.4L37.58 -2.32C36.97 -2.32 36.54 -2.45 36.27 -2.7C36 -2.96 35.83 -3.38 35.76 -3.98L35.76 -32.72C35.76 -33.04 35.65 -33.2 35.42 -33.2C35.38 -33.2 35.28 -33.16 35.12 -33.08L29.97 -30.66C29.77 -30.55 29.67 -30.42 29.67 -30.27C29.67 -30.11 29.69 -30.01 29.74 -29.96C29.78 -29.92 29.9 -29.87 30.08 -29.81C30.26 -29.76 30.51 -29.7 30.82 -29.64C31.13 -29.58 31.42 -29.5 31.68 -29.41C32.3 -29.19 32.61 -28.8 32.61 -28.24L32.61 -17.82C32.56 -17.66 32.52 -17.58 32.48 -17.57C32.45 -17.56 32.36 -17.56 32.23 -17.56ZM23.73 -3.87C22.6 -5.39 22.04 -7.18 22.04 -9.21C22.04 -11.25 22.55 -13.02 23.58 -14.52C24.61 -16.02 26.02 -16.77 27.8 -16.77C29.58 -16.77 31.01 -16.03 32.09 -14.55C32.44 -14.2 32.61 -13.9 32.61 -13.65L32.61 -3.23C32.61 -3 32.14 -2.67 31.2 -2.23C30.26 -1.79 29.34 -1.57 28.45 -1.57C26.44 -1.57 24.86 -2.34 23.73 -3.87Z M44.82 0L53.82 0C53.96 -0.03 54.03 -0.14 54.03 -0.34C54.03 -0.54 53.71 -0.69 53.08 -0.77C51.62 -0.98 50.9 -1.75 50.9 -3.07L50.9 -18.23C50.9 -18.55 50.78 -18.71 50.55 -18.71C50.51 -18.71 50.41 -18.67 50.25 -18.59L45.1 -16.17C44.9 -16.06 44.8 -15.93 44.8 -15.77C44.8 -15.62 44.82 -15.52 44.87 -15.47C44.92 -15.42 45.03 -15.37 45.21 -15.32C45.4 -15.27 45.64 -15.21 45.95 -15.15C46.26 -15.09 46.55 -15.01 46.82 -14.92C47.44 -14.7 47.75 -14.31 47.75 -13.75L47.75 -3.07C47.75 -1.75 47.02 -0.98 45.57 -0.77C44.94 -0.69 44.62 -0.52 44.62 -0.28C44.62 -0.12 44.69 -0.03 44.82 0ZM47.56 -24.91C47.98 -24.56 48.47 -24.38 49.03 -24.38C49.59 -24.38 50.05 -24.59 50.41 -25C50.78 -25.41 50.96 -25.86 50.96 -26.36C50.96 -26.86 50.77 -27.32 50.38 -27.75C50 -28.19 49.53 -28.4 48.97 -28.4C48.41 -28.4 47.93 -28.22 47.53 -27.86C47.12 -27.49 46.92 -27 46.92 -26.37C46.92 -25.75 47.13 -25.26 47.56 -24.91Z M63.5 -15.9C61.62 -13.99 60.68 -11.72 60.68 -9.07C60.68 -6.43 61.6 -4.16 63.43 -2.28C65.26 -0.4 67.56 0.54 70.33 0.54C73.1 0.54 75.41 -0.39 77.24 -2.25C79.08 -4.11 80 -6.41 80 -9.12C80 -11.84 79.03 -14.13 77.09 -15.98C75.16 -17.83 72.87 -18.75 70.25 -18.75C67.63 -18.75 65.38 -17.8 63.5 -15.9ZM65.71 -3.88C64.59 -5.8 64.03 -7.84 64.03 -10C64.03 -12.16 64.5 -13.94 65.44 -15.35C66.37 -16.76 67.65 -17.46 69.28 -17.46C71.5 -17.46 73.27 -16.38 74.58 -14.21C75.89 -12.04 76.55 -9.93 76.55 -7.87C76.55 -5.81 76.08 -4.08 75.15 -2.66C74.21 -1.25 72.86 -0.54 71.1 -0.54C68.82 -0.54 67.03 -1.66 65.71 -3.88Z M101.88 -6.36C101.88 -5 101.82 -3.98 101.71 -3.31C101.71 -1.84 100.99 -1.01 99.56 -0.81C98.92 -0.71 98.61 -0.54 98.61 -0.28C98.61 -0.12 98.67 -0.03 98.81 0L108.54 0C108.67 -0.03 108.74 -0.12 108.74 -0.28C108.74 -0.44 108.68 -0.55 108.55 -0.61C108.42 -0.66 108.15 -0.72 107.74 -0.78C107.33 -0.84 106.9 -0.94 106.46 -1.09C105.41 -1.41 104.88 -2.1 104.88 -3.15L104.88 -4.32L105.07 -10.21C105.07 -15.88 103.51 -18.71 100.4 -18.71C99.64 -18.71 98.67 -18.44 97.5 -17.9C96.33 -17.37 95.16 -16.81 94 -16.23C93.51 -15.99 93.22 -15.87 93.14 -15.87C93.07 -15.87 93.02 -15.93 92.97 -16.07L92.97 -19.22C92.97 -19.54 92.86 -19.7 92.63 -19.7C92.59 -19.7 92.49 -19.66 92.33 -19.58L87.18 -17.16C86.98 -17.05 86.88 -16.92 86.88 -16.76C86.88 -16.61 86.9 -16.51 86.95 -16.46C87 -16.41 87.11 -16.36 87.29 -16.31C87.47 -16.26 87.72 -16.2 88.03 -16.14C88.34 -16.08 88.63 -16 88.9 -15.91C89.52 -15.69 89.83 -15.3 89.83 -14.74L89.83 -3.15C89.83 -1.79 89.1 -1.01 87.65 -0.81C87.01 -0.71 86.7 -0.54 86.7 -0.28C86.7 -0.12 86.76 -0.03 86.9 0L95.9 0C96.04 -0.03 96.1 -0.14 96.1 -0.35C96.1 -0.56 95.79 -0.71 95.15 -0.81C93.7 -1.01 92.97 -1.79 92.97 -3.15L92.97 -14.01C92.99 -14.18 93.16 -14.37 93.5 -14.57C96 -15.78 97.64 -16.39 98.41 -16.39C99.19 -16.39 99.8 -16.21 100.26 -15.86C100.72 -15.5 101.1 -14.97 101.39 -14.27C101.69 -13.57 101.84 -12.35 101.84 -10.62Z"></path></g></g></g></svg>